<?xml version="1.0" standalone="no"?> 
<svg width="811.748" height="401.418" version="1.1" xmlns="http://www.w3.org/2000/svg">
<g stroke="black" stroke-width="1" fill="none">
<line x1="0.000" y1="154.258" x2="0.000" y2="166.258"/>
<line x1="0.000" y1="154.258" x2="6.000" y2="157.258"/>
<line x1="0.000" y1="166.258" x2="6.000" y2="163.258"/>
<line x1="6.000" y1="115.258" x2="6.000" y2="157.258"/>
<line x1="6.000" y1="163.258" x2="6.000" y2="205.258"/>
<line x1="8.939" y1="106.213" x2="33.626" y2="72.235"/>
<line x1="8.939" y1="114.303" x2="24.164" y2="135.258"/>
<line x1="8.939" y1="214.303" x2="33.626" y2="248.282"/>
<line x1="8.939" y1="368.017" x2="26.572" y2="343.746"/>
<line x1="10.755" y1="108.713" x2="35.389" y2="100.709"/>
<line x1="10.755" y1="111.803" x2="50.700" y2="124.782"/>
<line x1="10.755" y1="211.803" x2="39.287" y2="221.074"/>
<line x1="10.755" y1="370.517" x2="35.389" y2="362.513"/>
<line x1="10.755" y1="373.607" x2="39.287" y2="382.877"/>
<line x1="19.955" y1="342.646" x2="25.245" y2="335.365"/>
<line x1="19.955" y1="342.646" x2="26.572" y2="343.746"/>
<line x1="24.164" y1="135.258" x2="41.209" y2="158.720"/>
<line x1="25.245" y1="335.365" x2="30.099" y2="338.892"/>
<line x1="27.008" y1="249.382" x2="33.626" y2="248.282"/>
<line x1="27.008" y1="249.382" x2="34.062" y2="259.090"/>
<line x1="28.772" y1="330.511" x2="32.299" y2="325.657"/>
<line x1="28.772" y1="330.511" x2="33.626" y2="334.038"/>
<line x1="30.099" y1="338.892" x2="33.626" y2="334.038"/>
<line x1="32.299" y1="325.657" x2="37.153" y2="329.184"/>
<line x1="33.626" y1="72.235" x2="36.717" y2="78.188"/>
<line x1="34.062" y1="259.090" x2="37.153" y2="253.136"/>
<line x1="34.580" y1="225.853" x2="39.287" y2="221.074"/>
<line x1="34.580" y1="225.853" x2="43.139" y2="228.634"/>
<line x1="34.592" y1="159.819" x2="39.882" y2="167.101"/>
<line x1="34.592" y1="159.819" x2="41.209" y2="158.720"/>
<line x1="35.389" y1="100.709" x2="62.970" y2="91.748"/>
<line x1="35.389" y1="362.513" x2="62.970" y2="353.551"/>
<line x1="35.825" y1="320.803" x2="40.679" y2="324.330"/>
<line x1="35.825" y1="320.803" x2="41.115" y2="313.522"/>
<line x1="36.717" y1="78.188" x2="43.770" y2="68.480"/>
<line x1="37.153" y1="67.380" x2="43.770" y2="68.480"/>
<line x1="37.153" y1="67.380" x2="61.840" y2="33.402"/>
<line x1="37.153" y1="253.136" x2="61.840" y2="287.115"/>
<line x1="37.153" y1="329.184" x2="40.679" y2="324.330"/>
<line x1="38.288" y1="376.244" x2="39.287" y2="382.877"/>
<line x1="38.288" y1="376.244" x2="46.847" y2="379.025"/>
<line x1="39.882" y1="167.101" x2="44.736" y2="163.574"/>
<line x1="41.115" y1="313.522" x2="44.206" y2="319.476"/>
<line x1="43.139" y1="228.634" x2="44.993" y2="222.928"/>
<line x1="43.409" y1="171.955" x2="46.935" y2="176.809"/>
<line x1="43.409" y1="171.955" x2="48.263" y2="168.428"/>
<line x1="44.206" y1="319.476" x2="61.840" y2="295.205"/>
<line x1="44.736" y1="163.574" x2="48.263" y2="168.428"/>
<line x1="44.993" y1="222.928" x2="50.700" y2="224.782"/>
<line x1="44.993" y1="384.731" x2="46.847" y2="379.025"/>
<line x1="44.993" y1="384.731" x2="50.700" y2="386.586"/>
<line x1="45.992" y1="129.561" x2="50.700" y2="124.782"/>
<line x1="45.992" y1="129.561" x2="57.405" y2="133.270"/>
<line x1="46.935" y1="176.809" x2="51.789" y2="173.282"/>
<line x1="48.846" y1="230.488" x2="50.700" y2="224.782"/>
<line x1="48.846" y1="230.488" x2="54.552" y2="232.343"/>
<line x1="50.462" y1="181.663" x2="53.989" y2="186.517"/>
<line x1="50.462" y1="181.663" x2="55.316" y2="178.136"/>
<line x1="50.700" y1="386.586" x2="52.554" y2="380.879"/>
<line x1="51.789" y1="173.282" x2="55.316" y2="178.136"/>
<line x1="52.554" y1="380.879" x2="58.260" y2="382.733"/>
<line x1="53.989" y1="186.517" x2="58.843" y2="182.990"/>
<line x1="54.552" y1="232.343" x2="56.406" y2="226.636"/>
<line x1="56.406" y1="126.636" x2="57.405" y2="133.270"/>
<line x1="56.406" y1="126.636" x2="96.350" y2="139.615"/>
<line x1="56.406" y1="226.636" x2="62.112" y2="228.490"/>
<line x1="56.406" y1="388.440" x2="58.260" y2="382.733"/>
<line x1="56.406" y1="388.440" x2="62.112" y2="390.294"/>
<line x1="57.516" y1="191.371" x2="62.370" y2="187.844"/>
<line x1="57.516" y1="191.371" x2="62.806" y2="198.652"/>
<line x1="58.263" y1="348.772" x2="62.970" y2="353.551"/>
<line x1="58.263" y1="348.772" x2="66.822" y2="345.991"/>
<line x1="58.843" y1="182.990" x2="62.370" y2="187.844"/>
<line x1="60.258" y1="234.197" x2="62.112" y2="228.490"/>
<line x1="60.258" y1="234.197" x2="68.818" y2="236.978"/>
<line x1="61.971" y1="98.381" x2="62.970" y2="91.748"/>
<line x1="61.971" y1="98.381" x2="70.530" y2="95.600"/>
<line x1="62.112" y1="390.294" x2="63.966" y2="384.587"/>
<line x1="62.806" y1="198.652" x2="65.896" y2="192.699"/>
<line x1="63.966" y1="384.587" x2="72.526" y2="387.369"/>
<line x1="65.896" y1="192.699" x2="82.942" y2="216.160"/>
<line x1="66.822" y1="345.991" x2="68.676" y2="351.697"/>
<line x1="67.717" y1="287.115" x2="77.652" y2="273.441"/>
<line x1="67.819" y1="230.344" x2="68.818" y2="236.978"/>
<line x1="67.819" y1="230.344" x2="96.350" y2="239.615"/>
<line x1="67.819" y1="392.148" x2="72.526" y2="387.369"/>
<line x1="67.819" y1="392.148" x2="96.350" y2="401.418"/>
<line x1="68.676" y1="89.894" x2="70.530" y2="95.600"/>
<line x1="68.676" y1="89.894" x2="74.383" y2="88.039"/>
<line x1="68.676" y1="351.697" x2="74.383" y2="349.843"/>
<line x1="69.534" y1="27.812" x2="109.478" y2="14.833"/>
<line x1="69.534" y1="30.902" x2="98.066" y2="40.172"/>
<line x1="69.534" y1="292.705" x2="109.478" y2="305.684"/>
<line x1="71.035" y1="272.342" x2="76.325" y2="265.060"/>
<line x1="71.035" y1="272.342" x2="77.652" y2="273.441"/>
<line x1="72.528" y1="344.137" x2="74.383" y2="349.843"/>
<line x1="72.528" y1="344.137" x2="78.235" y2="342.282"/>
<line x1="74.383" y1="88.039" x2="76.237" y2="93.746"/>
<line x1="76.237" y1="93.746" x2="81.943" y2="91.892"/>
<line x1="76.325" y1="265.060" x2="81.179" y2="268.587"/>
<line x1="78.235" y1="342.282" x2="80.089" y2="347.989"/>
<line x1="79.851" y1="260.206" x2="84.705" y2="263.733"/>
<line x1="79.851" y1="260.206" x2="85.141" y2="252.925"/>
<line x1="80.089" y1="86.185" x2="81.943" y2="91.892"/>
<line x1="80.089" y1="86.185" x2="85.795" y2="84.331"/>
<line x1="80.089" y1="347.989" x2="85.795" y2="346.135"/>
<line x1="81.179" y1="268.587" x2="84.705" y2="263.733"/>
<line x1="82.942" y1="216.160" x2="98.167" y2="237.115"/>
<line x1="83.941" y1="340.428" x2="85.795" y2="346.135"/>
<line x1="83.941" y1="340.428" x2="89.647" y2="338.574"/>
<line x1="85.141" y1="252.925" x2="88.232" y2="258.879"/>
<line x1="85.795" y1="84.331" x2="87.649" y2="90.038"/>
<line x1="87.649" y1="90.038" x2="93.356" y2="88.184"/>
<line x1="88.232" y1="258.879" x2="98.167" y2="245.205"/>
<line x1="89.647" y1="338.574" x2="91.502" y2="344.281"/>
<line x1="91.502" y1="82.477" x2="93.356" y2="88.184"/>
<line x1="91.502" y1="82.477" x2="97.208" y2="80.623"/>
<line x1="91.502" y1="344.281" x2="97.208" y2="342.426"/>
<line x1="93.358" y1="44.951" x2="98.066" y2="40.172"/>
<line x1="93.358" y1="44.951" x2="101.918" y2="47.733"/>
<line x1="95.106" y1="173.160" x2="95.106" y2="182.160"/>
<line x1="95.106" y1="173.160" x2="101.106" y2="176.160"/>
<line x1="95.106" y1="182.160" x2="101.106" y2="182.160"/>
<line x1="95.106" y1="188.160" x2="95.106" y2="194.160"/>
<line x1="95.106" y1="188.160" x2="101.106" y2="188.160"/>
<line x1="95.106" y1="194.160" x2="101.106" y2="194.160"/>
<line x1="95.106" y1="200.160" x2="95.106" y2="209.160"/>
<line x1="95.106" y1="200.160" x2="101.106" y2="200.160"/>
<line x1="95.106" y1="209.160" x2="101.106" y2="206.160"/>
<line x1="95.354" y1="336.720" x2="97.208" y2="342.426"/>
<line x1="95.354" y1="336.720" x2="103.913" y2="333.939"/>
<line x1="97.208" y1="80.623" x2="99.062" y2="86.329"/>
<line x1="99.062" y1="86.329" x2="107.622" y2="83.548"/>
<line x1="101.106" y1="146.160" x2="101.106" y2="176.160"/>
<line x1="101.106" y1="182.160" x2="101.106" y2="188.160"/>
<line x1="101.106" y1="194.160" x2="101.106" y2="200.160"/>
<line x1="101.106" y1="206.160" x2="101.106" y2="236.160"/>
<line x1="101.918" y1="47.733" x2="103.772" y2="42.026"/>
<line x1="102.914" y1="78.769" x2="107.622" y2="83.548"/>
<line x1="102.914" y1="78.769" x2="130.495" y2="69.807"/>
<line x1="102.914" y1="340.572" x2="103.913" y2="333.939"/>
<line x1="102.914" y1="340.572" x2="130.495" y2="331.611"/>
<line x1="103.772" y1="42.026" x2="109.478" y2="43.880"/>
<line x1="104.045" y1="137.115" x2="121.678" y2="112.844"/>
<line x1="104.045" y1="145.205" x2="128.732" y2="179.184"/>
<line x1="104.045" y1="245.205" x2="121.678" y2="269.476"/>
<line x1="104.045" y1="398.918" x2="128.732" y2="364.940"/>
<line x1="105.861" y1="139.615" x2="145.805" y2="126.636"/>
<line x1="105.861" y1="142.705" x2="130.495" y2="150.709"/>
<line x1="105.861" y1="239.615" x2="121.935" y2="234.392"/>
<line x1="107.624" y1="49.587" x2="109.478" y2="43.880"/>
<line x1="107.624" y1="49.587" x2="113.330" y2="51.441"/>
<line x1="108.479" y1="21.466" x2="109.478" y2="14.833"/>
<line x1="108.479" y1="21.466" x2="119.892" y2="17.758"/>
<line x1="108.479" y1="299.050" x2="109.478" y2="305.684"/>
<line x1="108.479" y1="299.050" x2="119.892" y2="302.759"/>
<line x1="113.330" y1="51.441" x2="115.185" y2="45.735"/>
<line x1="115.185" y1="12.979" x2="119.892" y2="17.758"/>
<line x1="115.185" y1="12.979" x2="155.129" y2="0.000"/>
<line x1="115.185" y1="45.735" x2="120.891" y2="47.589"/>
<line x1="115.185" y1="307.538" x2="119.892" y2="302.759"/>
<line x1="115.185" y1="307.538" x2="155.129" y2="320.517"/>
<line x1="119.037" y1="53.295" x2="120.891" y2="47.589"/>
<line x1="119.037" y1="53.295" x2="127.596" y2="56.076"/>
<line x1="120.936" y1="241.025" x2="121.935" y2="234.392"/>
<line x1="120.936" y1="241.025" x2="129.496" y2="238.244"/>
<line x1="121.678" y1="112.844" x2="124.769" y2="118.798"/>
<line x1="121.678" y1="269.476" x2="124.769" y2="263.522"/>
<line x1="122.114" y1="180.283" x2="128.732" y2="179.184"/>
<line x1="122.114" y1="180.283" x2="129.168" y2="189.992"/>
<line x1="122.114" y1="363.840" x2="128.732" y2="364.940"/>
<line x1="122.114" y1="363.840" x2="129.168" y2="354.132"/>
<line x1="124.769" y1="118.798" x2="130.059" y2="111.517"/>
<line x1="124.769" y1="263.522" x2="130.059" y2="270.803"/>
<line x1="125.205" y1="107.990" x2="128.732" y2="103.136"/>
<line x1="125.205" y1="107.990" x2="130.059" y2="111.517"/>
<line x1="125.205" y1="274.330" x2="128.732" y2="279.184"/>
<line x1="125.205" y1="274.330" x2="130.059" y2="270.803"/>
<line x1="126.597" y1="49.443" x2="127.596" y2="56.076"/>
<line x1="126.597" y1="49.443" x2="155.129" y2="58.713"/>
<line x1="127.642" y1="232.538" x2="129.496" y2="238.244"/>
<line x1="127.642" y1="232.538" x2="133.348" y2="230.684"/>
<line x1="128.732" y1="103.136" x2="133.586" y2="106.663"/>
<line x1="128.732" y1="279.184" x2="133.586" y2="275.657"/>
<line x1="129.168" y1="189.992" x2="132.258" y2="184.038"/>
<line x1="129.168" y1="354.132" x2="132.258" y2="360.086"/>
<line x1="130.495" y1="69.807" x2="155.129" y2="61.803"/>
<line x1="130.495" y1="150.709" x2="158.076" y2="159.671"/>
<line x1="130.495" y1="331.611" x2="155.129" y2="323.607"/>
<line x1="132.258" y1="98.282" x2="135.785" y2="93.428"/>
<line x1="132.258" y1="98.282" x2="137.112" y2="101.809"/>
<line x1="132.258" y1="184.038" x2="156.945" y2="218.017"/>
<line x1="132.258" y1="284.038" x2="135.785" y2="288.892"/>
<line x1="132.258" y1="284.038" x2="137.112" y2="280.511"/>
<line x1="132.258" y1="360.086" x2="156.945" y2="326.107"/>
<line x1="133.348" y1="230.684" x2="135.202" y2="236.390"/>
<line x1="133.586" y1="106.663" x2="137.112" y2="101.809"/>
<line x1="133.586" y1="275.657" x2="137.112" y2="280.511"/>
<line x1="135.202" y1="236.390" x2="143.762" y2="233.609"/>
<line x1="135.785" y1="93.428" x2="140.639" y2="96.955"/>
<line x1="135.785" y1="288.892" x2="140.639" y2="285.365"/>
<line x1="139.054" y1="228.830" x2="143.762" y2="233.609"/>
<line x1="139.054" y1="228.830" x2="155.129" y2="223.607"/>
<line x1="139.312" y1="88.574" x2="145.929" y2="89.674"/>
<line x1="139.312" y1="88.574" x2="156.945" y2="64.303"/>
<line x1="139.312" y1="293.746" x2="145.929" y2="292.646"/>
<line x1="139.312" y1="293.746" x2="156.945" y2="318.017"/>
<line x1="140.639" y1="96.955" x2="145.929" y2="89.674"/>
<line x1="140.639" y1="285.365" x2="145.929" y2="292.646"/>
<line x1="144.806" y1="133.270" x2="145.805" y2="126.636"/>
<line x1="144.806" y1="133.270" x2="156.219" y2="129.561"/>
<line x1="151.512" y1="124.782" x2="156.219" y2="129.561"/>
<line x1="151.512" y1="124.782" x2="191.456" y2="111.803"/>
<line x1="153.368" y1="164.450" x2="158.076" y2="159.671"/>
<line x1="153.368" y1="164.450" x2="161.928" y2="167.231"/>
<line x1="159.884" y1="3.455" x2="159.884" y2="20.357"/>
<line x1="159.884" y1="20.357" x2="165.884" y2="17.357"/>
<line x1="159.884" y1="26.357" x2="159.884" y2="32.357"/>
<line x1="159.884" y1="26.357" x2="165.884" y2="26.357"/>
<line x1="159.884" y1="32.357" x2="165.884" y2="32.357"/>
<line x1="159.884" y1="38.357" x2="159.884" y2="55.258"/>
<line x1="159.884" y1="38.357" x2="165.884" y2="41.357"/>
<line x1="159.884" y1="227.062" x2="159.884" y2="269.062"/>
<line x1="159.884" y1="269.062" x2="165.884" y2="266.062"/>
<line x1="159.884" y1="275.062" x2="159.884" y2="317.062"/>
<line x1="159.884" y1="275.062" x2="165.884" y2="278.062"/>
<line x1="161.928" y1="167.231" x2="163.782" y2="161.525"/>
<line x1="162.823" y1="64.303" x2="172.758" y2="77.977"/>
<line x1="162.823" y1="318.017" x2="178.048" y2="297.062"/>
<line x1="162.823" y1="326.107" x2="187.510" y2="360.086"/>
<line x1="163.782" y1="161.525" x2="169.488" y2="163.379"/>
<line x1="164.639" y1="0.000" x2="204.584" y2="12.979"/>
<line x1="164.639" y1="58.713" x2="193.171" y2="49.443"/>
<line x1="164.639" y1="220.517" x2="193.171" y2="211.246"/>
<line x1="164.639" y1="320.517" x2="204.584" y2="307.538"/>
<line x1="164.639" y1="323.607" x2="189.273" y2="331.611"/>
<line x1="165.884" y1="17.357" x2="165.884" y2="26.357"/>
<line x1="165.884" y1="32.357" x2="165.884" y2="41.357"/>
<line x1="165.884" y1="266.062" x2="165.884" y2="278.062"/>
<line x1="166.140" y1="79.077" x2="171.430" y2="86.358"/>
<line x1="166.140" y1="79.077" x2="172.758" y2="77.977"/>
<line x1="167.634" y1="169.085" x2="169.488" y2="163.379"/>
<line x1="167.634" y1="169.085" x2="173.340" y2="170.939"/>
<line x1="171.430" y1="86.358" x2="176.284" y2="82.831"/>
<line x1="173.340" y1="170.939" x2="175.195" y2="165.233"/>
<line x1="174.957" y1="91.212" x2="179.811" y2="87.685"/>
<line x1="174.957" y1="91.212" x2="180.247" y2="98.493"/>
<line x1="175.195" y1="165.233" x2="180.901" y2="167.087"/>
<line x1="176.284" y1="82.831" x2="179.811" y2="87.685"/>
<line x1="178.048" y1="297.062" x2="195.094" y2="273.600"/>
<line x1="179.047" y1="172.793" x2="180.901" y2="167.087"/>
<line x1="179.047" y1="172.793" x2="184.753" y2="174.648"/>
<line x1="180.247" y1="98.493" x2="183.338" y2="92.539"/>
<line x1="180.893" y1="361.185" x2="187.510" y2="360.086"/>
<line x1="180.893" y1="361.185" x2="187.946" y2="370.893"/>
<line x1="183.338" y1="92.539" x2="193.272" y2="106.213"/>
<line x1="184.753" y1="174.648" x2="186.607" y2="168.941"/>
<line x1="186.607" y1="168.941" x2="192.314" y2="170.795"/>
<line x1="187.946" y1="370.893" x2="191.037" y2="364.940"/>
<line x1="188.464" y1="44.663" x2="193.171" y2="49.443"/>
<line x1="188.464" y1="44.663" x2="197.023" y2="41.882"/>
<line x1="189.273" y1="331.611" x2="216.854" y2="340.572"/>
<line x1="190.459" y1="176.502" x2="192.314" y2="170.795"/>
<line x1="190.459" y1="176.502" x2="199.019" y2="179.283"/>
<line x1="191.037" y1="364.940" x2="215.724" y2="398.918"/>
<line x1="192.172" y1="217.880" x2="193.171" y2="211.246"/>
<line x1="192.172" y1="217.880" x2="200.732" y2="215.098"/>
<line x1="195.094" y1="273.600" x2="198.184" y2="279.554"/>
<line x1="197.023" y1="41.882" x2="198.877" y2="47.589"/>
<line x1="198.020" y1="172.649" x2="199.019" y2="179.283"/>
<line x1="198.020" y1="172.649" x2="225.601" y2="181.611"/>
<line x1="198.184" y1="279.554" x2="203.474" y2="272.273"/>
<line x1="198.620" y1="268.746" x2="202.147" y2="263.892"/>
<line x1="198.620" y1="268.746" x2="203.474" y2="272.273"/>
<line x1="198.877" y1="47.589" x2="204.584" y2="45.735"/>
<line x1="198.877" y1="209.392" x2="200.732" y2="215.098"/>
<line x1="198.877" y1="209.392" x2="204.584" y2="207.538"/>
<line x1="199.150" y1="106.213" x2="223.837" y2="72.235"/>
<line x1="199.150" y1="114.303" x2="216.784" y2="138.574"/>
<line x1="202.147" y1="263.892" x2="207.001" y2="267.419"/>
<line x1="202.730" y1="40.028" x2="204.584" y2="45.735"/>
<line x1="202.730" y1="40.028" x2="208.436" y2="38.174"/>
<line x1="203.585" y1="6.345" x2="204.584" y2="12.979"/>
<line x1="203.585" y1="6.345" x2="214.997" y2="10.054"/>
<line x1="203.585" y1="314.171" x2="204.584" y2="307.538"/>
<line x1="203.585" y1="314.171" x2="214.997" y2="310.463"/>
<line x1="204.584" y1="207.538" x2="206.438" y2="213.244"/>
<line x1="205.674" y1="259.038" x2="209.200" y2="254.184"/>
<line x1="205.674" y1="259.038" x2="210.528" y2="262.565"/>
<line x1="206.438" y1="213.244" x2="212.144" y2="211.390"/>
<line x1="207.001" y1="267.419" x2="210.528" y2="262.565"/>
<line x1="208.436" y1="38.174" x2="210.290" y2="43.880"/>
<line x1="209.200" y1="254.184" x2="214.054" y2="257.711"/>
<line x1="210.166" y1="139.674" x2="215.456" y2="146.955"/>
<line x1="210.166" y1="139.674" x2="216.784" y2="138.574"/>
<line x1="210.290" y1="14.833" x2="214.997" y2="10.054"/>
<line x1="210.290" y1="14.833" x2="250.235" y2="27.812"/>
<line x1="210.290" y1="43.880" x2="215.997" y2="42.026"/>
<line x1="210.290" y1="205.684" x2="212.144" y2="211.390"/>
<line x1="210.290" y1="205.684" x2="215.997" y2="203.830"/>
<line x1="210.290" y1="305.684" x2="214.997" y2="310.463"/>
<line x1="210.290" y1="305.684" x2="250.235" y2="292.705"/>
<line x1="212.147" y1="345.352" x2="216.854" y2="340.572"/>
<line x1="212.147" y1="345.352" x2="220.706" y2="348.133"/>
<line x1="212.727" y1="249.330" x2="216.254" y2="244.476"/>
<line x1="212.727" y1="249.330" x2="217.581" y2="252.856"/>
<line x1="214.054" y1="257.711" x2="217.581" y2="252.856"/>
<line x1="214.142" y1="36.320" x2="215.997" y2="42.026"/>
<line x1="214.142" y1="36.320" x2="222.702" y2="33.539"/>
<line x1="215.456" y1="146.955" x2="220.310" y2="143.428"/>
<line x1="215.997" y1="203.830" x2="217.851" y2="209.536"/>
<line x1="216.254" y1="244.476" x2="221.108" y2="248.002"/>
<line x1="217.220" y1="71.135" x2="223.837" y2="72.235"/>
<line x1="217.220" y1="71.135" x2="224.273" y2="61.427"/>
<line x1="217.851" y1="209.536" x2="226.410" y2="206.755"/>
<line x1="218.983" y1="151.809" x2="222.510" y2="156.663"/>
<line x1="218.983" y1="151.809" x2="223.837" y2="148.282"/>
<line x1="219.780" y1="239.622" x2="226.398" y2="240.721"/>
<line x1="219.780" y1="239.622" x2="236.826" y2="216.160"/>
<line x1="220.310" y1="143.428" x2="223.837" y2="148.282"/>
<line x1="220.706" y1="348.133" x2="222.560" y2="342.426"/>
<line x1="221.108" y1="248.002" x2="226.398" y2="240.721"/>
<line x1="221.703" y1="40.172" x2="222.702" y2="33.539"/>
<line x1="221.703" y1="40.172" x2="250.235" y2="30.902"/>
<line x1="221.703" y1="201.976" x2="226.410" y2="206.755"/>
<line x1="221.703" y1="201.976" x2="250.235" y2="192.705"/>
<line x1="222.510" y1="156.663" x2="227.364" y2="153.136"/>
<line x1="222.560" y1="342.426" x2="228.267" y2="344.281"/>
<line x1="223.418" y1="401.418" x2="251.950" y2="392.148"/>
<line x1="224.273" y1="61.427" x2="227.364" y2="67.380"/>
<line x1="225.601" y1="181.611" x2="250.235" y2="189.615"/>
<line x1="226.037" y1="161.517" x2="230.891" y2="157.990"/>
<line x1="226.037" y1="161.517" x2="231.327" y2="168.798"/>
<line x1="226.413" y1="349.987" x2="228.267" y2="344.281"/>
<line x1="226.413" y1="349.987" x2="232.119" y2="351.841"/>
<line x1="227.364" y1="67.380" x2="252.051" y2="33.402"/>
<line x1="227.364" y1="153.136" x2="230.891" y2="157.990"/>
<line x1="231.327" y1="168.798" x2="234.417" y2="162.844"/>
<line x1="232.119" y1="351.841" x2="233.973" y2="346.135"/>
<line x1="233.973" y1="346.135" x2="239.679" y2="347.989"/>
<line x1="234.417" y1="162.844" x2="252.051" y2="187.115"/>
<line x1="236.826" y1="216.160" x2="252.051" y2="195.205"/>
<line x1="237.825" y1="353.695" x2="239.679" y2="347.989"/>
<line x1="237.825" y1="353.695" x2="243.532" y2="355.549"/>
<line x1="243.532" y1="355.549" x2="245.386" y2="349.843"/>
<line x1="245.386" y1="349.843" x2="251.092" y2="351.697"/>
<line x1="248.990" y1="86.258" x2="248.990" y2="95.258"/>
<line x1="248.990" y1="86.258" x2="254.990" y2="89.258"/>
<line x1="248.990" y1="95.258" x2="254.990" y2="95.258"/>
<line x1="248.990" y1="101.258" x2="248.990" y2="107.258"/>
<line x1="248.990" y1="101.258" x2="254.990" y2="101.258"/>
<line x1="248.990" y1="107.258" x2="254.990" y2="107.258"/>
<line x1="248.990" y1="113.258" x2="248.990" y2="119.258"/>
<line x1="248.990" y1="113.258" x2="254.990" y2="113.258"/>
<line x1="248.990" y1="119.258" x2="254.990" y2="119.258"/>
<line x1="248.990" y1="125.258" x2="248.990" y2="134.258"/>
<line x1="248.990" y1="125.258" x2="254.990" y2="125.258"/>
<line x1="248.990" y1="134.258" x2="254.990" y2="131.258"/>
<line x1="249.238" y1="357.403" x2="251.092" y2="351.697"/>
<line x1="249.238" y1="357.403" x2="257.798" y2="360.184"/>
<line x1="250.951" y1="398.781" x2="251.950" y2="392.148"/>
<line x1="250.951" y1="398.781" x2="259.510" y2="396.000"/>
<line x1="254.990" y1="34.357" x2="254.990" y2="60.258"/>
<line x1="254.990" y1="60.258" x2="254.990" y2="89.258"/>
<line x1="254.990" y1="95.258" x2="254.990" y2="101.258"/>
<line x1="254.990" y1="107.258" x2="254.990" y2="113.258"/>
<line x1="254.990" y1="119.258" x2="254.990" y2="125.258"/>
<line x1="254.990" y1="131.258" x2="254.990" y2="160.258"/>
<line x1="254.990" y1="160.258" x2="254.990" y2="186.160"/>
<line x1="254.990" y1="196.160" x2="254.990" y2="226.160"/>
<line x1="254.990" y1="226.160" x2="260.990" y2="223.160"/>
<line x1="254.990" y1="232.160" x2="254.990" y2="238.160"/>
<line x1="254.990" y1="232.160" x2="260.990" y2="232.160"/>
<line x1="254.990" y1="238.160" x2="260.990" y2="238.160"/>
<line x1="254.990" y1="244.160" x2="254.990" y2="250.160"/>
<line x1="254.990" y1="244.160" x2="260.990" y2="244.160"/>
<line x1="254.990" y1="250.160" x2="260.990" y2="250.160"/>
<line x1="254.990" y1="256.160" x2="254.990" y2="286.160"/>
<line x1="254.990" y1="256.160" x2="260.990" y2="259.160"/>
<line x1="256.798" y1="353.551" x2="257.798" y2="360.184"/>
<line x1="256.798" y1="353.551" x2="284.379" y2="362.513"/>
<line x1="257.656" y1="390.294" x2="259.510" y2="396.000"/>
<line x1="257.656" y1="390.294" x2="263.362" y2="388.440"/>
<line x1="257.929" y1="33.402" x2="282.616" y2="67.380"/>
<line x1="257.929" y1="187.115" x2="275.562" y2="162.844"/>
<line x1="257.929" y1="287.115" x2="282.616" y2="253.136"/>
<line x1="257.929" y1="295.205" x2="275.562" y2="319.476"/>
<line x1="259.745" y1="27.812" x2="299.689" y2="14.833"/>
<line x1="259.745" y1="30.902" x2="284.379" y2="38.906"/>
<line x1="259.745" y1="192.705" x2="275.820" y2="197.928"/>
<line x1="259.745" y1="289.615" x2="284.379" y2="281.611"/>
<line x1="259.745" y1="292.705" x2="299.689" y2="305.684"/>
<line x1="260.990" y1="223.160" x2="260.990" y2="232.160"/>
<line x1="260.990" y1="238.160" x2="260.990" y2="244.160"/>
<line x1="260.990" y1="250.160" x2="260.990" y2="259.160"/>
<line x1="263.362" y1="388.440" x2="265.216" y2="394.146"/>
<line x1="265.216" y1="394.146" x2="270.923" y2="392.292"/>
<line x1="268.945" y1="161.745" x2="274.235" y2="154.464"/>
<line x1="268.945" y1="161.745" x2="275.562" y2="162.844"/>
<line x1="268.945" y1="320.575" x2="274.235" y2="327.856"/>
<line x1="268.945" y1="320.575" x2="275.562" y2="319.476"/>
<line x1="269.069" y1="386.586" x2="270.923" y2="392.292"/>
<line x1="269.069" y1="386.586" x2="274.775" y2="384.731"/>
<line x1="271.112" y1="202.707" x2="275.820" y2="197.928"/>
<line x1="271.112" y1="202.707" x2="279.672" y2="205.488"/>
<line x1="274.235" y1="154.464" x2="279.089" y2="157.990"/>
<line x1="274.235" y1="327.856" x2="279.089" y2="324.330"/>
<line x1="274.775" y1="384.731" x2="276.629" y2="390.438"/>
<line x1="275.998" y1="68.480" x2="282.616" y2="67.380"/>
<line x1="275.998" y1="68.480" x2="283.052" y2="78.188"/>
<line x1="276.629" y1="390.438" x2="285.189" y2="387.657"/>
<line x1="277.762" y1="149.610" x2="281.288" y2="144.755"/>
<line x1="277.762" y1="149.610" x2="282.616" y2="153.136"/>
<line x1="277.762" y1="332.711" x2="281.288" y2="337.565"/>
<line x1="277.762" y1="332.711" x2="282.616" y2="329.184"/>
<line x1="279.089" y1="157.990" x2="282.616" y2="153.136"/>
<line x1="279.089" y1="324.330" x2="282.616" y2="329.184"/>
<line x1="279.672" y1="205.488" x2="281.526" y2="199.782"/>
<line x1="280.481" y1="382.877" x2="285.189" y2="387.657"/>
<line x1="280.481" y1="382.877" x2="309.013" y2="373.607"/>
<line x1="281.288" y1="144.755" x2="286.142" y2="148.282"/>
<line x1="281.288" y1="337.565" x2="286.142" y2="334.038"/>
<line x1="281.526" y1="199.782" x2="287.232" y2="201.636"/>
<line x1="282.616" y1="253.136" x2="285.706" y2="259.090"/>
<line x1="283.052" y1="78.188" x2="286.142" y2="72.235"/>
<line x1="284.379" y1="38.906" x2="311.960" y2="47.867"/>
<line x1="284.379" y1="281.611" x2="311.960" y2="272.649"/>
<line x1="284.379" y1="362.513" x2="309.013" y2="370.517"/>
<line x1="284.815" y1="139.901" x2="289.669" y2="143.428"/>
<line x1="284.815" y1="139.901" x2="290.105" y2="132.620"/>
<line x1="284.815" y1="342.419" x2="289.669" y2="338.892"/>
<line x1="284.815" y1="342.419" x2="290.105" y2="349.700"/>
<line x1="285.378" y1="207.343" x2="287.232" y2="201.636"/>
<line x1="285.378" y1="207.343" x2="293.938" y2="210.124"/>
<line x1="285.706" y1="259.090" x2="292.760" y2="249.382"/>
<line x1="286.142" y1="72.235" x2="310.829" y2="106.213"/>
<line x1="286.142" y1="148.282" x2="289.669" y2="143.428"/>
<line x1="286.142" y1="248.282" x2="292.760" y2="249.382"/>
<line x1="286.142" y1="248.282" x2="310.829" y2="214.303"/>
<line x1="286.142" y1="334.038" x2="289.669" y2="338.892"/>
<line x1="290.105" y1="132.620" x2="293.196" y2="138.574"/>
<line x1="290.105" y1="349.700" x2="293.196" y2="343.746"/>
<line x1="292.939" y1="203.490" x2="293.938" y2="210.124"/>
<line x1="292.939" y1="203.490" x2="309.013" y2="208.713"/>
<line x1="293.196" y1="138.574" x2="310.829" y2="114.303"/>
<line x1="293.196" y1="343.746" x2="310.829" y2="368.017"/>
<line x1="294.982" y1="310.463" x2="299.689" y2="305.684"/>
<line x1="294.982" y1="310.463" x2="306.395" y2="314.171"/>
<line x1="298.690" y1="21.466" x2="299.689" y2="14.833"/>
<line x1="298.690" y1="21.466" x2="310.103" y2="17.758"/>
<line x1="305.396" y1="12.979" x2="310.103" y2="17.758"/>
<line x1="305.396" y1="12.979" x2="345.340" y2="0.000"/>
<line x1="305.396" y1="307.538" x2="306.395" y2="314.171"/>
<line x1="305.396" y1="307.538" x2="345.340" y2="320.517"/>
<line x1="307.252" y1="52.647" x2="311.960" y2="47.867"/>
<line x1="307.252" y1="52.647" x2="315.812" y2="55.428"/>
<line x1="307.768" y1="154.258" x2="307.768" y2="166.258"/>
<line x1="307.768" y1="154.258" x2="313.768" y2="157.258"/>
<line x1="307.768" y1="166.258" x2="313.768" y2="163.258"/>
<line x1="310.961" y1="279.283" x2="311.960" y2="272.649"/>
<line x1="310.961" y1="279.283" x2="319.520" y2="276.502"/>
<line x1="313.768" y1="115.258" x2="313.768" y2="157.258"/>
<line x1="313.768" y1="163.258" x2="313.768" y2="205.258"/>
<line x1="315.812" y1="55.428" x2="317.666" y2="49.721"/>
<line x1="316.707" y1="114.303" x2="331.932" y2="135.258"/>
<line x1="316.707" y1="368.017" x2="326.642" y2="354.343"/>
<line x1="317.666" y1="49.721" x2="323.372" y2="51.575"/>
<line x1="317.666" y1="270.795" x2="319.520" y2="276.502"/>
<line x1="317.666" y1="270.795" x2="323.372" y2="268.941"/>
<line x1="318.524" y1="108.713" x2="347.055" y2="99.443"/>
<line x1="318.524" y1="111.803" x2="358.468" y2="124.782"/>
<line x1="318.524" y1="211.803" x2="347.055" y2="221.074"/>
<line x1="318.524" y1="373.607" x2="347.055" y2="382.877"/>
<line x1="321.518" y1="57.282" x2="323.372" y2="51.575"/>
<line x1="321.518" y1="57.282" x2="327.225" y2="59.136"/>
<line x1="323.372" y1="268.941" x2="325.227" y2="274.648"/>
<line x1="325.227" y1="274.648" x2="330.933" y2="272.793"/>
<line x1="326.642" y1="354.343" x2="329.733" y2="360.297"/>
<line x1="327.225" y1="59.136" x2="329.079" y2="53.430"/>
<line x1="329.079" y1="53.430" x2="334.785" y2="55.284"/>
<line x1="329.079" y1="267.087" x2="330.933" y2="272.793"/>
<line x1="329.079" y1="267.087" x2="334.785" y2="265.233"/>
<line x1="329.733" y1="360.297" x2="335.023" y2="353.015"/>
<line x1="330.169" y1="349.489" x2="333.695" y2="344.635"/>
<line x1="330.169" y1="349.489" x2="335.023" y2="353.015"/>
<line x1="331.932" y1="135.258" x2="348.978" y2="158.720"/>
<line x1="332.931" y1="60.990" x2="334.785" y2="55.284"/>
<line x1="332.931" y1="60.990" x2="338.637" y2="62.844"/>
<line x1="333.695" y1="344.635" x2="338.549" y2="348.161"/>
<line x1="334.785" y1="265.233" x2="336.639" y2="270.939"/>
<line x1="336.639" y1="270.939" x2="342.346" y2="269.085"/>
<line x1="337.222" y1="339.781" x2="343.839" y2="340.880"/>
<line x1="337.222" y1="339.781" x2="347.157" y2="326.107"/>
<line x1="338.549" y1="348.161" x2="343.839" y2="340.880"/>
<line x1="338.637" y1="62.844" x2="340.491" y2="57.138"/>
<line x1="340.491" y1="57.138" x2="346.198" y2="58.992"/>
<line x1="340.491" y1="263.379" x2="342.346" y2="269.085"/>
<line x1="340.491" y1="263.379" x2="346.198" y2="261.525"/>
<line x1="342.348" y1="225.853" x2="347.055" y2="221.074"/>
<line x1="342.348" y1="225.853" x2="350.908" y2="228.634"/>
<line x1="342.360" y1="159.819" x2="347.650" y2="167.101"/>
<line x1="342.360" y1="159.819" x2="348.978" y2="158.720"/>
<line x1="344.344" y1="64.698" x2="346.198" y2="58.992"/>
<line x1="344.344" y1="64.698" x2="352.903" y2="67.479"/>
<line x1="346.056" y1="106.076" x2="347.055" y2="99.443"/>
<line x1="346.056" y1="106.076" x2="354.616" y2="103.295"/>
<line x1="346.056" y1="376.244" x2="347.055" y2="382.877"/>
<line x1="346.056" y1="376.244" x2="354.616" y2="379.025"/>
<line x1="346.198" y1="261.525" x2="348.052" y2="267.231"/>
<line x1="347.650" y1="167.101" x2="352.504" y2="163.574"/>
<line x1="348.052" y1="267.231" x2="356.611" y2="264.450"/>
<line x1="350.908" y1="228.634" x2="352.762" y2="222.928"/>
<line x1="351.177" y1="171.955" x2="354.704" y2="176.809"/>
<line x1="351.177" y1="171.955" x2="356.031" y2="168.428"/>
<line x1="351.904" y1="60.846" x2="352.903" y2="67.479"/>
<line x1="351.904" y1="60.846" x2="379.485" y2="69.807"/>
<line x1="351.904" y1="259.671" x2="356.611" y2="264.450"/>
<line x1="351.904" y1="259.671" x2="379.485" y2="250.709"/>
<line x1="352.504" y1="163.574" x2="356.031" y2="168.428"/>
<line x1="352.762" y1="97.589" x2="354.616" y2="103.295"/>
<line x1="352.762" y1="97.589" x2="358.468" y2="95.735"/>
<line x1="352.762" y1="222.928" x2="358.468" y2="224.782"/>
<line x1="352.762" y1="384.731" x2="354.616" y2="379.025"/>
<line x1="352.762" y1="384.731" x2="358.468" y2="386.586"/>
<line x1="353.034" y1="2.500" x2="370.668" y2="26.771"/>
<line x1="353.034" y1="318.017" x2="370.668" y2="293.746"/>
<line x1="353.034" y1="326.107" x2="377.721" y2="360.086"/>
<line x1="353.761" y1="129.561" x2="358.468" y2="124.782"/>
<line x1="353.761" y1="129.561" x2="365.173" y2="133.270"/>
<line x1="354.704" y1="176.809" x2="359.558" y2="173.282"/>
<line x1="356.614" y1="230.488" x2="358.468" y2="224.782"/>
<line x1="356.614" y1="230.488" x2="362.320" y2="232.343"/>
<line x1="358.230" y1="181.663" x2="361.757" y2="186.517"/>
<line x1="358.230" y1="181.663" x2="363.085" y2="178.136"/>
<line x1="358.468" y1="95.735" x2="360.322" y2="101.441"/>
<line x1="358.468" y1="386.586" x2="360.322" y2="380.879"/>
<line x1="359.558" y1="173.282" x2="363.085" y2="178.136"/>
<line x1="360.322" y1="101.441" x2="366.028" y2="99.587"/>
<line x1="360.322" y1="380.879" x2="366.028" y2="382.733"/>
<line x1="361.757" y1="186.517" x2="366.611" y2="182.990"/>
<line x1="362.320" y1="232.343" x2="364.174" y2="226.636"/>
<line x1="364.051" y1="27.870" x2="369.341" y2="35.151"/>
<line x1="364.051" y1="27.870" x2="370.668" y2="26.771"/>
<line x1="364.174" y1="93.880" x2="366.028" y2="99.587"/>
<line x1="364.174" y1="93.880" x2="369.881" y2="92.026"/>
<line x1="364.174" y1="126.636" x2="365.173" y2="133.270"/>
<line x1="364.174" y1="126.636" x2="404.119" y2="139.615"/>
<line x1="364.174" y1="226.636" x2="369.881" y2="228.490"/>
<line x1="364.174" y1="388.440" x2="366.028" y2="382.733"/>
<line x1="364.174" y1="388.440" x2="369.881" y2="390.294"/>
<line x1="365.284" y1="191.371" x2="370.138" y2="187.844"/>
<line x1="365.284" y1="191.371" x2="370.574" y2="198.652"/>
<line x1="366.611" y1="182.990" x2="370.138" y2="187.844"/>
<line x1="368.027" y1="234.197" x2="369.881" y2="228.490"/>
<line x1="368.027" y1="234.197" x2="376.586" y2="236.978"/>
<line x1="369.341" y1="35.151" x2="374.195" y2="31.625"/>
<line x1="369.881" y1="92.026" x2="371.735" y2="97.733"/>
<line x1="369.881" y1="390.294" x2="371.735" y2="384.587"/>
<line x1="370.574" y1="198.652" x2="373.665" y2="192.699"/>
<line x1="370.668" y1="293.746" x2="373.759" y2="299.700"/>
<line x1="371.735" y1="97.733" x2="380.294" y2="94.951"/>
<line x1="371.735" y1="384.587" x2="380.294" y2="387.369"/>
<line x1="372.867" y1="40.005" x2="376.394" y2="44.860"/>
<line x1="372.867" y1="40.005" x2="377.721" y2="36.479"/>
<line x1="373.665" y1="192.699" x2="390.710" y2="216.160"/>
<line x1="373.759" y1="299.700" x2="379.049" y2="292.419"/>
<line x1="374.195" y1="31.625" x2="377.721" y2="36.479"/>
<line x1="374.195" y1="288.892" x2="377.721" y2="284.038"/>
<line x1="374.195" y1="288.892" x2="379.049" y2="292.419"/>
<line x1="375.587" y1="90.172" x2="380.294" y2="94.951"/>
<line x1="375.587" y1="90.172" x2="404.119" y2="80.902"/>
<line x1="375.587" y1="230.344" x2="376.586" y2="236.978"/>
<line x1="375.587" y1="230.344" x2="404.119" y2="239.615"/>
<line x1="375.587" y1="392.148" x2="380.294" y2="387.369"/>
<line x1="375.587" y1="392.148" x2="404.119" y2="401.418"/>
<line x1="376.394" y1="44.860" x2="381.248" y2="41.333"/>
<line x1="377.721" y1="284.038" x2="382.575" y2="287.565"/>
<line x1="377.721" y1="360.086" x2="380.812" y2="354.132"/>
<line x1="379.485" y1="69.807" x2="404.119" y2="77.812"/>
<line x1="379.485" y1="250.709" x2="404.119" y2="242.705"/>
<line x1="379.921" y1="49.714" x2="384.775" y2="46.187"/>
<line x1="379.921" y1="49.714" x2="385.211" y2="56.995"/>
<line x1="380.812" y1="354.132" x2="387.866" y2="363.840"/>
<line x1="381.248" y1="41.333" x2="384.775" y2="46.187"/>
<line x1="381.248" y1="279.184" x2="384.775" y2="274.330"/>
<line x1="381.248" y1="279.184" x2="386.102" y2="282.711"/>
<line x1="381.248" y1="364.940" x2="387.866" y2="363.840"/>
<line x1="381.248" y1="364.940" x2="405.935" y2="398.918"/>
<line x1="382.575" y1="287.565" x2="386.102" y2="282.711"/>
<line x1="384.775" y1="274.330" x2="389.629" y2="277.856"/>
<line x1="385.211" y1="56.995" x2="388.302" y2="51.041"/>
<line x1="388.302" y1="51.041" x2="405.935" y2="75.312"/>
<line x1="388.302" y1="269.476" x2="394.919" y2="270.575"/>
<line x1="388.302" y1="269.476" x2="405.935" y2="245.205"/>
<line x1="389.629" y1="277.856" x2="394.919" y2="270.575"/>
<line x1="390.710" y1="216.160" x2="405.935" y2="237.115"/>
<line x1="402.874" y1="98.258" x2="402.874" y2="107.258"/>
<line x1="402.874" y1="98.258" x2="408.874" y2="101.258"/>
<line x1="402.874" y1="107.258" x2="408.874" y2="107.258"/>
<line x1="402.874" y1="113.258" x2="402.874" y2="122.258"/>
<line x1="402.874" y1="113.258" x2="408.874" y2="113.258"/>
<line x1="402.874" y1="122.258" x2="408.874" y2="119.258"/>
<line x1="402.874" y1="173.160" x2="402.874" y2="182.160"/>
<line x1="402.874" y1="173.160" x2="408.874" y2="176.160"/>
<line x1="402.874" y1="182.160" x2="408.874" y2="182.160"/>
<line x1="402.874" y1="188.160" x2="402.874" y2="194.160"/>
<line x1="402.874" y1="188.160" x2="408.874" y2="188.160"/>
<line x1="402.874" y1="194.160" x2="408.874" y2="194.160"/>
<line x1="402.874" y1="200.160" x2="402.874" y2="209.160"/>
<line x1="402.874" y1="200.160" x2="408.874" y2="200.160"/>
<line x1="402.874" y1="209.160" x2="408.874" y2="206.160"/>
<line x1="408.874" y1="84.357" x2="408.874" y2="101.258"/>
<line x1="408.874" y1="107.258" x2="408.874" y2="113.258"/>
<line x1="408.874" y1="119.258" x2="408.874" y2="136.160"/>
<line x1="408.874" y1="146.160" x2="408.874" y2="176.160"/>
<line x1="408.874" y1="182.160" x2="408.874" y2="188.160"/>
<line x1="408.874" y1="194.160" x2="408.874" y2="200.160"/>
<line x1="408.874" y1="206.160" x2="408.874" y2="236.160"/>
<line x1="408.874" y1="246.160" x2="408.874" y2="272.062"/>
<line x1="408.874" y1="272.062" x2="408.874" y2="301.062"/>
<line x1="408.874" y1="301.062" x2="414.874" y2="298.062"/>
<line x1="408.874" y1="307.062" x2="408.874" y2="313.062"/>
<line x1="408.874" y1="307.062" x2="414.874" y2="307.062"/>
<line x1="408.874" y1="313.062" x2="414.874" y2="313.062"/>
<line x1="408.874" y1="319.062" x2="408.874" y2="325.062"/>
<line x1="408.874" y1="319.062" x2="414.874" y2="319.062"/>
<line x1="408.874" y1="325.062" x2="414.874" y2="325.062"/>
<line x1="408.874" y1="331.062" x2="408.874" y2="337.062"/>
<line x1="408.874" y1="331.062" x2="414.874" y2="331.062"/>
<line x1="408.874" y1="337.062" x2="414.874" y2="337.062"/>
<line x1="408.874" y1="343.062" x2="408.874" y2="372.062"/>
<line x1="408.874" y1="343.062" x2="414.874" y2="346.062"/>
<line x1="408.874" y1="372.062" x2="408.874" y2="397.963"/>
<line x1="411.813" y1="75.312" x2="429.446" y2="51.041"/>
<line x1="411.813" y1="237.115" x2="427.038" y2="216.160"/>
<line x1="411.813" y1="245.205" x2="429.446" y2="269.476"/>
<line x1="411.813" y1="398.918" x2="436.500" y2="364.940"/>
<line x1="413.629" y1="77.812" x2="438.263" y2="69.807"/>
<line x1="413.629" y1="80.902" x2="442.161" y2="90.172"/>
<line x1="413.629" y1="139.615" x2="453.574" y2="126.636"/>
<line x1="413.629" y1="239.615" x2="442.161" y2="230.344"/>
<line x1="413.629" y1="242.705" x2="438.263" y2="250.709"/>
<line x1="413.629" y1="401.418" x2="442.161" y2="392.148"/>
<line x1="414.874" y1="298.062" x2="414.874" y2="307.062"/>
<line x1="414.874" y1="313.062" x2="414.874" y2="319.062"/>
<line x1="414.874" y1="325.062" x2="414.874" y2="331.062"/>
<line x1="414.874" y1="337.062" x2="414.874" y2="346.062"/>
<line x1="422.829" y1="49.941" x2="428.119" y2="42.660"/>
<line x1="422.829" y1="49.941" x2="429.446" y2="51.041"/>
<line x1="427.038" y1="216.160" x2="444.083" y2="192.699"/>
<line x1="428.119" y1="42.660" x2="432.973" y2="46.187"/>
<line x1="429.446" y1="269.476" x2="432.537" y2="263.522"/>
<line x1="431.646" y1="37.806" x2="435.173" y2="32.952"/>
<line x1="431.646" y1="37.806" x2="436.500" y2="41.333"/>
<line x1="432.537" y1="263.522" x2="437.827" y2="270.803"/>
<line x1="432.973" y1="46.187" x2="436.500" y2="41.333"/>
<line x1="432.973" y1="274.330" x2="436.500" y2="279.184"/>
<line x1="432.973" y1="274.330" x2="437.827" y2="270.803"/>
<line x1="435.173" y1="32.952" x2="440.027" y2="36.479"/>
<line x1="436.500" y1="279.184" x2="441.354" y2="275.657"/>
<line x1="436.500" y1="364.940" x2="439.591" y2="370.893"/>
<line x1="437.454" y1="225.565" x2="442.161" y2="230.344"/>
<line x1="437.454" y1="225.565" x2="446.013" y2="222.784"/>
<line x1="437.466" y1="191.599" x2="442.756" y2="184.318"/>
<line x1="437.466" y1="191.599" x2="444.083" y2="192.699"/>
<line x1="438.263" y1="69.807" x2="465.844" y2="60.846"/>
<line x1="438.263" y1="250.709" x2="465.844" y2="259.671"/>
<line x1="438.699" y1="28.098" x2="443.553" y2="31.625"/>
<line x1="438.699" y1="28.098" x2="443.989" y2="20.817"/>
<line x1="439.591" y1="370.893" x2="446.644" y2="361.185"/>
<line x1="440.027" y1="36.479" x2="443.553" y2="31.625"/>
<line x1="440.027" y1="284.038" x2="443.553" y2="288.892"/>
<line x1="440.027" y1="284.038" x2="444.881" y2="280.511"/>
<line x1="440.027" y1="360.086" x2="446.644" y2="361.185"/>
<line x1="440.027" y1="360.086" x2="464.714" y2="326.107"/>
<line x1="441.162" y1="83.539" x2="442.161" y2="90.172"/>
<line x1="441.162" y1="83.539" x2="449.721" y2="86.320"/>
<line x1="441.162" y1="398.781" x2="442.161" y2="392.148"/>
<line x1="441.162" y1="398.781" x2="449.721" y2="396.000"/>
<line x1="441.354" y1="275.657" x2="444.881" y2="280.511"/>
<line x1="442.756" y1="184.318" x2="447.610" y2="187.844"/>
<line x1="443.553" y1="288.892" x2="448.407" y2="285.365"/>
<line x1="443.989" y1="20.817" x2="447.080" y2="26.771"/>
<line x1="446.013" y1="222.784" x2="447.867" y2="228.490"/>
<line x1="446.283" y1="179.464" x2="449.809" y2="174.610"/>
<line x1="446.283" y1="179.464" x2="451.137" y2="182.990"/>
<line x1="447.080" y1="26.771" x2="464.714" y2="2.500"/>
<line x1="447.080" y1="293.746" x2="453.698" y2="292.646"/>
<line x1="447.080" y1="293.746" x2="464.714" y2="318.017"/>
<line x1="447.610" y1="187.844" x2="451.137" y2="182.990"/>
<line x1="447.867" y1="92.026" x2="449.721" y2="86.320"/>
<line x1="447.867" y1="92.026" x2="453.574" y2="93.880"/>
<line x1="447.867" y1="228.490" x2="453.574" y2="226.636"/>
<line x1="447.867" y1="390.294" x2="449.721" y2="396.000"/>
<line x1="447.867" y1="390.294" x2="453.574" y2="388.440"/>
<line x1="448.407" y1="285.365" x2="453.698" y2="292.646"/>
<line x1="448.866" y1="121.857" x2="453.574" y2="126.636"/>
<line x1="448.866" y1="121.857" x2="460.279" y2="118.149"/>
<line x1="449.809" y1="174.610" x2="454.663" y2="178.136"/>
<line x1="451.720" y1="220.930" x2="453.574" y2="226.636"/>
<line x1="451.720" y1="220.930" x2="457.426" y2="219.076"/>
<line x1="453.336" y1="169.755" x2="456.863" y2="164.901"/>
<line x1="453.336" y1="169.755" x2="458.190" y2="173.282"/>
<line x1="453.574" y1="93.880" x2="455.428" y2="88.174"/>
<line x1="453.574" y1="388.440" x2="455.428" y2="394.146"/>
<line x1="454.663" y1="178.136" x2="458.190" y2="173.282"/>
<line x1="455.428" y1="88.174" x2="461.134" y2="90.028"/>
<line x1="455.428" y1="394.146" x2="461.134" y2="392.292"/>
<line x1="456.863" y1="164.901" x2="461.717" y2="168.428"/>
<line x1="457.426" y1="219.076" x2="459.280" y2="224.782"/>
<line x1="459.280" y1="95.735" x2="461.134" y2="90.028"/>
<line x1="459.280" y1="95.735" x2="464.986" y2="97.589"/>
<line x1="459.280" y1="124.782" x2="460.279" y2="118.149"/>
<line x1="459.280" y1="124.782" x2="499.224" y2="111.803"/>
<line x1="459.280" y1="224.782" x2="464.986" y2="222.928"/>
<line x1="459.280" y1="386.586" x2="461.134" y2="392.292"/>
<line x1="459.280" y1="386.586" x2="464.986" y2="384.731"/>
<line x1="460.390" y1="160.047" x2="465.244" y2="163.574"/>
<line x1="460.390" y1="160.047" x2="465.680" y2="152.766"/>
<line x1="461.137" y1="56.067" x2="465.844" y2="60.846"/>
<line x1="461.137" y1="56.067" x2="469.696" y2="53.286"/>
<line x1="461.717" y1="168.428" x2="465.244" y2="163.574"/>
<line x1="463.132" y1="217.222" x2="464.986" y2="222.928"/>
<line x1="463.132" y1="217.222" x2="471.692" y2="214.441"/>
<line x1="464.845" y1="253.037" x2="465.844" y2="259.671"/>
<line x1="464.845" y1="253.037" x2="473.404" y2="255.818"/>
<line x1="464.986" y1="97.589" x2="466.840" y2="91.882"/>
<line x1="464.986" y1="384.731" x2="466.840" y2="390.438"/>
<line x1="465.680" y1="152.766" x2="468.770" y2="158.720"/>
<line x1="466.840" y1="91.882" x2="475.400" y2="94.663"/>
<line x1="466.840" y1="390.438" x2="475.400" y2="387.657"/>
<line x1="468.770" y1="158.720" x2="485.816" y2="135.258"/>
<line x1="469.696" y1="53.286" x2="471.550" y2="58.992"/>
<line x1="470.591" y1="326.107" x2="480.526" y2="339.781"/>
<line x1="470.693" y1="99.443" x2="475.400" y2="94.663"/>
<line x1="470.693" y1="99.443" x2="499.224" y2="108.713"/>
<line x1="470.693" y1="221.074" x2="471.692" y2="214.441"/>
<line x1="470.693" y1="221.074" x2="499.224" y2="211.803"/>
<line x1="470.693" y1="382.877" x2="475.400" y2="387.657"/>
<line x1="470.693" y1="382.877" x2="499.224" y2="373.607"/>
<line x1="471.550" y1="58.992" x2="477.257" y2="57.138"/>
<line x1="471.550" y1="261.525" x2="473.404" y2="255.818"/>
<line x1="471.550" y1="261.525" x2="477.257" y2="263.379"/>
<line x1="472.408" y1="0.000" x2="512.352" y2="12.979"/>
<line x1="472.408" y1="320.517" x2="512.352" y2="307.538"/>
<line x1="475.402" y1="51.431" x2="477.257" y2="57.138"/>
<line x1="475.402" y1="51.431" x2="481.109" y2="49.577"/>
<line x1="477.257" y1="263.379" x2="479.111" y2="257.673"/>
<line x1="479.111" y1="257.673" x2="484.817" y2="259.527"/>
<line x1="480.526" y1="339.781" x2="483.617" y2="333.827"/>
<line x1="481.109" y1="49.577" x2="482.963" y2="55.284"/>
<line x1="482.963" y1="55.284" x2="488.669" y2="53.430"/>
<line x1="482.963" y1="265.233" x2="484.817" y2="259.527"/>
<line x1="482.963" y1="265.233" x2="488.669" y2="267.087"/>
<line x1="483.617" y1="333.827" x2="488.907" y2="341.108"/>
<line x1="484.053" y1="344.635" x2="487.579" y2="349.489"/>
<line x1="484.053" y1="344.635" x2="488.907" y2="341.108"/>
<line x1="485.816" y1="135.258" x2="501.041" y2="114.303"/>
<line x1="486.815" y1="47.723" x2="488.669" y2="53.430"/>
<line x1="486.815" y1="47.723" x2="492.522" y2="45.869"/>
<line x1="487.579" y1="349.489" x2="492.434" y2="345.962"/>
<line x1="488.669" y1="267.087" x2="490.523" y2="261.381"/>
<line x1="490.523" y1="261.381" x2="496.230" y2="263.235"/>
<line x1="491.106" y1="354.343" x2="497.724" y2="353.243"/>
<line x1="491.106" y1="354.343" x2="501.041" y2="368.017"/>
<line x1="492.434" y1="345.962" x2="497.724" y2="353.243"/>
<line x1="492.522" y1="45.869" x2="494.376" y2="51.575"/>
<line x1="494.376" y1="51.575" x2="500.082" y2="49.721"/>
<line x1="494.376" y1="268.941" x2="496.230" y2="263.235"/>
<line x1="494.376" y1="268.941" x2="500.082" y2="270.795"/>
<line x1="497.980" y1="154.258" x2="497.980" y2="166.258"/>
<line x1="497.980" y1="154.258" x2="503.980" y2="157.258"/>
<line x1="497.980" y1="166.258" x2="503.980" y2="163.258"/>
<line x1="498.228" y1="44.015" x2="500.082" y2="49.721"/>
<line x1="498.228" y1="44.015" x2="506.787" y2="41.234"/>
<line x1="500.082" y1="270.795" x2="501.936" y2="265.089"/>
<line x1="501.936" y1="265.089" x2="510.496" y2="267.870"/>
<line x1="503.980" y1="115.258" x2="503.980" y2="157.258"/>
<line x1="503.980" y1="163.258" x2="503.980" y2="205.258"/>
<line x1="505.788" y1="47.867" x2="506.787" y2="41.234"/>
<line x1="505.788" y1="47.867" x2="533.369" y2="38.906"/>
<line x1="505.788" y1="272.649" x2="510.496" y2="267.870"/>
<line x1="505.788" y1="272.649" x2="533.369" y2="281.611"/>
<line x1="506.919" y1="106.213" x2="531.606" y2="72.235"/>
<line x1="506.919" y1="114.303" x2="524.552" y2="138.574"/>
<line x1="506.919" y1="214.303" x2="531.606" y2="248.282"/>
<line x1="506.919" y1="368.017" x2="524.552" y2="343.746"/>
<line x1="507.645" y1="302.759" x2="512.352" y2="307.538"/>
<line x1="507.645" y1="302.759" x2="519.058" y2="299.050"/>
<line x1="508.735" y1="208.713" x2="524.809" y2="203.490"/>
<line x1="508.735" y1="370.517" x2="533.369" y2="362.513"/>
<line x1="508.735" y1="373.607" x2="537.267" y2="382.877"/>
<line x1="511.353" y1="6.345" x2="512.352" y2="12.979"/>
<line x1="511.353" y1="6.345" x2="522.766" y2="10.054"/>
<line x1="517.935" y1="139.674" x2="523.225" y2="146.955"/>
<line x1="517.935" y1="139.674" x2="524.552" y2="138.574"/>
<line x1="517.935" y1="342.646" x2="523.225" y2="335.365"/>
<line x1="517.935" y1="342.646" x2="524.552" y2="343.746"/>
<line x1="518.059" y1="14.833" x2="522.766" y2="10.054"/>
<line x1="518.059" y1="14.833" x2="558.003" y2="27.812"/>
<line x1="518.059" y1="305.684" x2="519.058" y2="299.050"/>
<line x1="518.059" y1="305.684" x2="558.003" y2="292.705"/>
<line x1="520.102" y1="198.711" x2="524.809" y2="203.490"/>
<line x1="520.102" y1="198.711" x2="528.662" y2="195.930"/>
<line x1="523.225" y1="146.955" x2="528.079" y2="143.428"/>
<line x1="523.225" y1="335.365" x2="528.079" y2="338.892"/>
<line x1="524.988" y1="71.135" x2="531.606" y2="72.235"/>
<line x1="524.988" y1="71.135" x2="532.042" y2="61.427"/>
<line x1="526.751" y1="151.809" x2="530.278" y2="156.663"/>
<line x1="526.751" y1="151.809" x2="531.606" y2="148.282"/>
<line x1="526.751" y1="330.511" x2="530.278" y2="325.657"/>
<line x1="526.751" y1="330.511" x2="531.606" y2="334.038"/>
<line x1="528.079" y1="143.428" x2="531.606" y2="148.282"/>
<line x1="528.079" y1="338.892" x2="531.606" y2="334.038"/>
<line x1="528.662" y1="195.930" x2="530.516" y2="201.636"/>
<line x1="530.278" y1="156.663" x2="535.132" y2="153.136"/>
<line x1="530.278" y1="325.657" x2="535.132" y2="329.184"/>
<line x1="530.516" y1="201.636" x2="536.222" y2="199.782"/>
<line x1="531.606" y1="248.282" x2="534.696" y2="242.328"/>
<line x1="532.042" y1="61.427" x2="535.132" y2="67.380"/>
<line x1="533.369" y1="38.906" x2="558.003" y2="30.902"/>
<line x1="533.369" y1="281.611" x2="558.003" y2="289.615"/>
<line x1="533.369" y1="362.513" x2="560.950" y2="353.551"/>
<line x1="533.805" y1="161.517" x2="538.659" y2="157.990"/>
<line x1="533.805" y1="161.517" x2="539.095" y2="168.798"/>
<line x1="533.805" y1="320.803" x2="538.659" y2="324.330"/>
<line x1="533.805" y1="320.803" x2="539.095" y2="313.522"/>
<line x1="534.368" y1="194.076" x2="536.222" y2="199.782"/>
<line x1="534.368" y1="194.076" x2="542.927" y2="191.295"/>
<line x1="534.696" y1="242.328" x2="541.750" y2="252.037"/>
<line x1="535.132" y1="67.380" x2="559.819" y2="33.402"/>
<line x1="535.132" y1="153.136" x2="538.659" y2="157.990"/>
<line x1="535.132" y1="253.136" x2="541.750" y2="252.037"/>
<line x1="535.132" y1="253.136" x2="559.819" y2="287.115"/>
<line x1="535.132" y1="329.184" x2="538.659" y2="324.330"/>
<line x1="536.268" y1="376.244" x2="537.267" y2="382.877"/>
<line x1="536.268" y1="376.244" x2="544.827" y2="379.025"/>
<line x1="539.095" y1="168.798" x2="542.186" y2="162.844"/>
<line x1="539.095" y1="313.522" x2="542.186" y2="319.476"/>
<line x1="541.928" y1="197.928" x2="542.927" y2="191.295"/>
<line x1="541.928" y1="197.928" x2="558.003" y2="192.705"/>
<line x1="542.186" y1="162.844" x2="559.819" y2="187.115"/>
<line x1="542.186" y1="319.476" x2="559.819" y2="295.205"/>
<line x1="542.973" y1="384.731" x2="544.827" y2="379.025"/>
<line x1="542.973" y1="384.731" x2="548.679" y2="386.586"/>
<line x1="548.679" y1="386.586" x2="550.533" y2="380.879"/>
<line x1="550.533" y1="380.879" x2="556.240" y2="382.733"/>
<line x1="554.386" y1="388.440" x2="556.240" y2="382.733"/>
<line x1="554.386" y1="388.440" x2="560.092" y2="390.294"/>
<line x1="556.242" y1="348.772" x2="560.950" y2="353.551"/>
<line x1="556.242" y1="348.772" x2="564.802" y2="345.991"/>
<line x1="556.758" y1="86.258" x2="556.758" y2="95.258"/>
<line x1="556.758" y1="86.258" x2="562.758" y2="89.258"/>
<line x1="556.758" y1="95.258" x2="562.758" y2="95.258"/>
<line x1="556.758" y1="101.258" x2="556.758" y2="107.258"/>
<line x1="556.758" y1="101.258" x2="562.758" y2="101.258"/>
<line x1="556.758" y1="107.258" x2="562.758" y2="107.258"/>
<line x1="556.758" y1="113.258" x2="556.758" y2="119.258"/>
<line x1="556.758" y1="113.258" x2="562.758" y2="113.258"/>
<line x1="556.758" y1="119.258" x2="562.758" y2="119.258"/>
<line x1="556.758" y1="125.258" x2="556.758" y2="134.258"/>
<line x1="556.758" y1="125.258" x2="562.758" y2="125.258"/>
<line x1="556.758" y1="134.258" x2="562.758" y2="131.258"/>
<line x1="560.092" y1="390.294" x2="561.946" y2="384.587"/>
<line x1="561.946" y1="384.587" x2="570.506" y2="387.369"/>
<line x1="562.758" y1="34.357" x2="562.758" y2="60.258"/>
<line x1="562.758" y1="60.258" x2="562.758" y2="89.258"/>
<line x1="562.758" y1="95.258" x2="562.758" y2="101.258"/>
<line x1="562.758" y1="107.258" x2="562.758" y2="113.258"/>
<line x1="562.758" y1="119.258" x2="562.758" y2="125.258"/>
<line x1="562.758" y1="131.258" x2="562.758" y2="160.258"/>
<line x1="562.758" y1="160.258" x2="562.758" y2="186.160"/>
<line x1="562.758" y1="196.160" x2="562.758" y2="226.160"/>
<line x1="562.758" y1="226.160" x2="568.758" y2="223.160"/>
<line x1="562.758" y1="232.160" x2="562.758" y2="238.160"/>
<line x1="562.758" y1="232.160" x2="568.758" y2="232.160"/>
<line x1="562.758" y1="238.160" x2="568.758" y2="238.160"/>
<line x1="562.758" y1="244.160" x2="562.758" y2="250.160"/>
<line x1="562.758" y1="244.160" x2="568.758" y2="244.160"/>
<line x1="562.758" y1="250.160" x2="568.758" y2="250.160"/>
<line x1="562.758" y1="256.160" x2="562.758" y2="286.160"/>
<line x1="562.758" y1="256.160" x2="568.758" y2="259.160"/>
<line x1="564.802" y1="345.991" x2="566.656" y2="351.697"/>
<line x1="565.697" y1="33.402" x2="590.384" y2="67.380"/>
<line x1="565.697" y1="187.115" x2="583.331" y2="162.844"/>
<line x1="565.697" y1="195.205" x2="580.922" y2="216.160"/>
<line x1="565.798" y1="392.148" x2="570.506" y2="387.369"/>
<line x1="565.798" y1="392.148" x2="594.330" y2="401.418"/>
<line x1="566.656" y1="351.697" x2="572.362" y2="349.843"/>
<line x1="567.513" y1="27.812" x2="607.458" y2="14.833"/>
<line x1="567.513" y1="30.902" x2="596.045" y2="40.172"/>
<line x1="567.513" y1="189.615" x2="592.147" y2="181.611"/>
<line x1="567.513" y1="192.705" x2="596.045" y2="201.976"/>
<line x1="567.513" y1="292.705" x2="607.458" y2="305.684"/>
<line x1="568.758" y1="223.160" x2="568.758" y2="232.160"/>
<line x1="568.758" y1="238.160" x2="568.758" y2="244.160"/>
<line x1="568.758" y1="250.160" x2="568.758" y2="259.160"/>
<line x1="570.508" y1="344.137" x2="572.362" y2="349.843"/>
<line x1="570.508" y1="344.137" x2="576.214" y2="342.282"/>
<line x1="576.214" y1="342.282" x2="578.069" y2="347.989"/>
<line x1="576.713" y1="161.745" x2="582.003" y2="154.464"/>
<line x1="576.713" y1="161.745" x2="583.331" y2="162.844"/>
<line x1="578.069" y1="347.989" x2="583.775" y2="346.135"/>
<line x1="580.922" y1="216.160" x2="597.968" y2="239.622"/>
<line x1="581.921" y1="340.428" x2="583.775" y2="346.135"/>
<line x1="581.921" y1="340.428" x2="587.627" y2="338.574"/>
<line x1="582.003" y1="154.464" x2="586.857" y2="157.990"/>
<line x1="583.767" y1="68.480" x2="590.384" y2="67.380"/>
<line x1="583.767" y1="68.480" x2="590.820" y2="78.188"/>
<line x1="585.530" y1="149.610" x2="589.057" y2="144.755"/>
<line x1="585.530" y1="149.610" x2="590.384" y2="153.136"/>
<line x1="586.857" y1="157.990" x2="590.384" y2="153.136"/>
<line x1="587.627" y1="338.574" x2="589.481" y2="344.281"/>
<line x1="589.057" y1="144.755" x2="593.911" y2="148.282"/>
<line x1="589.481" y1="344.281" x2="595.188" y2="342.426"/>
<line x1="590.820" y1="78.188" x2="593.911" y2="72.235"/>
<line x1="591.338" y1="44.951" x2="596.045" y2="40.172"/>
<line x1="591.338" y1="44.951" x2="599.897" y2="47.733"/>
<line x1="592.147" y1="181.611" x2="619.728" y2="172.649"/>
<line x1="592.583" y1="139.901" x2="597.438" y2="143.428"/>
<line x1="592.583" y1="139.901" x2="597.873" y2="132.620"/>
<line x1="593.333" y1="336.720" x2="595.188" y2="342.426"/>
<line x1="593.333" y1="336.720" x2="601.893" y2="333.939"/>
<line x1="593.911" y1="72.235" x2="618.598" y2="106.213"/>
<line x1="593.911" y1="148.282" x2="597.438" y2="143.428"/>
<line x1="595.046" y1="195.342" x2="596.045" y2="201.976"/>
<line x1="595.046" y1="195.342" x2="603.606" y2="198.123"/>
<line x1="597.873" y1="132.620" x2="600.964" y2="138.574"/>
<line x1="597.968" y1="239.622" x2="601.058" y2="233.668"/>
<line x1="599.897" y1="47.733" x2="601.751" y2="42.026"/>
<line x1="600.894" y1="340.572" x2="601.893" y2="333.939"/>
<line x1="600.894" y1="340.572" x2="628.475" y2="331.611"/>
<line x1="600.964" y1="138.574" x2="618.598" y2="114.303"/>
<line x1="601.058" y1="233.668" x2="606.348" y2="240.949"/>
<line x1="601.494" y1="244.476" x2="605.021" y2="249.330"/>
<line x1="601.494" y1="244.476" x2="606.348" y2="240.949"/>
<line x1="601.751" y1="42.026" x2="607.458" y2="43.880"/>
<line x1="601.751" y1="203.830" x2="603.606" y2="198.123"/>
<line x1="601.751" y1="203.830" x2="607.458" y2="205.684"/>
<line x1="602.024" y1="398.918" x2="626.711" y2="364.940"/>
<line x1="605.021" y1="249.330" x2="609.875" y2="245.803"/>
<line x1="605.604" y1="49.587" x2="607.458" y2="43.880"/>
<line x1="605.604" y1="49.587" x2="611.310" y2="51.441"/>
<line x1="606.459" y1="21.466" x2="607.458" y2="14.833"/>
<line x1="606.459" y1="21.466" x2="617.871" y2="17.758"/>
<line x1="606.459" y1="299.050" x2="607.458" y2="305.684"/>
<line x1="606.459" y1="299.050" x2="617.871" y2="302.759"/>
<line x1="607.458" y1="205.684" x2="609.312" y2="199.977"/>
<line x1="608.548" y1="254.184" x2="612.074" y2="259.038"/>
<line x1="608.548" y1="254.184" x2="613.402" y2="250.657"/>
<line x1="609.312" y1="199.977" x2="615.018" y2="201.832"/>
<line x1="609.875" y1="245.803" x2="613.402" y2="250.657"/>
<line x1="611.310" y1="51.441" x2="613.164" y2="45.735"/>
<line x1="612.074" y1="259.038" x2="616.928" y2="255.511"/>
<line x1="613.164" y1="12.979" x2="617.871" y2="17.758"/>
<line x1="613.164" y1="12.979" x2="653.109" y2="0.000"/>
<line x1="613.164" y1="45.735" x2="618.871" y2="47.589"/>
<line x1="613.164" y1="207.538" x2="615.018" y2="201.832"/>
<line x1="613.164" y1="207.538" x2="618.871" y2="209.392"/>
<line x1="613.164" y1="307.538" x2="617.871" y2="302.759"/>
<line x1="613.164" y1="307.538" x2="653.109" y2="320.517"/>
<line x1="615.021" y1="167.870" x2="619.728" y2="172.649"/>
<line x1="615.021" y1="167.870" x2="623.580" y2="165.089"/>
<line x1="615.601" y1="263.892" x2="619.128" y2="268.746"/>
<line x1="615.601" y1="263.892" x2="620.455" y2="260.365"/>
<line x1="616.928" y1="255.511" x2="620.455" y2="260.365"/>
<line x1="617.016" y1="53.295" x2="618.871" y2="47.589"/>
<line x1="617.016" y1="53.295" x2="625.576" y2="56.076"/>
<line x1="618.871" y1="209.392" x2="620.725" y2="203.686"/>
<line x1="619.128" y1="268.746" x2="623.982" y2="265.219"/>
<line x1="620.094" y1="363.840" x2="626.711" y2="364.940"/>
<line x1="620.094" y1="363.840" x2="627.147" y2="354.132"/>
<line x1="620.725" y1="203.686" x2="629.284" y2="206.467"/>
<line x1="622.654" y1="273.600" x2="629.272" y2="272.501"/>
<line x1="622.654" y1="273.600" x2="639.700" y2="297.062"/>
<line x1="623.580" y1="165.089" x2="625.434" y2="170.795"/>
<line x1="623.982" y1="265.219" x2="629.272" y2="272.501"/>
<line x1="624.476" y1="106.213" x2="634.410" y2="92.539"/>
<line x1="624.577" y1="49.443" x2="625.576" y2="56.076"/>
<line x1="624.577" y1="49.443" x2="653.109" y2="58.713"/>
<line x1="624.577" y1="211.246" x2="629.284" y2="206.467"/>
<line x1="624.577" y1="211.246" x2="653.109" y2="220.517"/>
<line x1="625.434" y1="170.795" x2="631.141" y2="168.941"/>
<line x1="626.292" y1="111.803" x2="666.236" y2="124.782"/>
<line x1="627.147" y1="354.132" x2="630.238" y2="360.086"/>
<line x1="627.793" y1="91.440" x2="633.083" y2="84.159"/>
<line x1="627.793" y1="91.440" x2="634.410" y2="92.539"/>
<line x1="628.475" y1="331.611" x2="653.109" y2="323.607"/>
<line x1="629.287" y1="163.235" x2="631.141" y2="168.941"/>
<line x1="629.287" y1="163.235" x2="634.993" y2="161.381"/>
<line x1="630.238" y1="360.086" x2="654.925" y2="326.107"/>
<line x1="633.083" y1="84.159" x2="637.937" y2="87.685"/>
<line x1="634.993" y1="161.381" x2="636.847" y2="167.087"/>
<line x1="636.610" y1="79.305" x2="641.464" y2="82.831"/>
<line x1="636.610" y1="79.305" x2="641.900" y2="72.023"/>
<line x1="636.847" y1="167.087" x2="642.553" y2="165.233"/>
<line x1="637.937" y1="87.685" x2="641.464" y2="82.831"/>
<line x1="639.700" y1="297.062" x2="654.925" y2="318.017"/>
<line x1="640.699" y1="159.527" x2="642.553" y2="165.233"/>
<line x1="640.699" y1="159.527" x2="646.406" y2="157.673"/>
<line x1="641.900" y1="72.023" x2="644.990" y2="77.977"/>
<line x1="644.990" y1="77.977" x2="654.925" y2="64.303"/>
<line x1="646.406" y1="157.673" x2="648.260" y2="163.379"/>
<line x1="648.260" y1="163.379" x2="653.966" y2="161.525"/>
<line x1="652.112" y1="155.818" x2="653.966" y2="161.525"/>
<line x1="652.112" y1="155.818" x2="660.672" y2="153.037"/>
<line x1="657.864" y1="3.455" x2="657.864" y2="20.357"/>
<line x1="657.864" y1="20.357" x2="663.864" y2="17.357"/>
<line x1="657.864" y1="26.357" x2="657.864" y2="32.357"/>
<line x1="657.864" y1="26.357" x2="663.864" y2="26.357"/>
<line x1="657.864" y1="32.357" x2="663.864" y2="32.357"/>
<line x1="657.864" y1="38.357" x2="657.864" y2="55.258"/>
<line x1="657.864" y1="38.357" x2="663.864" y2="41.357"/>
<line x1="657.864" y1="227.062" x2="657.864" y2="269.062"/>
<line x1="657.864" y1="269.062" x2="663.864" y2="266.062"/>
<line x1="657.864" y1="275.062" x2="657.864" y2="317.062"/>
<line x1="657.864" y1="275.062" x2="663.864" y2="278.062"/>
<line x1="659.672" y1="159.671" x2="660.672" y2="153.037"/>
<line x1="659.672" y1="159.671" x2="687.253" y2="150.709"/>
<line x1="660.803" y1="64.303" x2="678.436" y2="88.574"/>
<line x1="660.803" y1="218.017" x2="685.490" y2="184.038"/>
<line x1="660.803" y1="318.017" x2="678.436" y2="293.746"/>
<line x1="660.803" y1="326.107" x2="685.490" y2="360.086"/>
<line x1="662.619" y1="0.000" x2="702.563" y2="12.979"/>
<line x1="662.619" y1="58.713" x2="691.151" y2="49.443"/>
<line x1="662.619" y1="61.803" x2="687.253" y2="69.807"/>
<line x1="662.619" y1="223.607" x2="678.694" y2="228.830"/>
<line x1="662.619" y1="320.517" x2="702.563" y2="307.538"/>
<line x1="662.619" y1="323.607" x2="687.253" y2="331.611"/>
<line x1="663.864" y1="17.357" x2="663.864" y2="26.357"/>
<line x1="663.864" y1="32.357" x2="663.864" y2="41.357"/>
<line x1="663.864" y1="266.062" x2="663.864" y2="278.062"/>
<line x1="665.237" y1="118.149" x2="666.236" y2="124.782"/>
<line x1="665.237" y1="118.149" x2="676.650" y2="121.857"/>
<line x1="671.943" y1="126.636" x2="676.650" y2="121.857"/>
<line x1="671.943" y1="126.636" x2="711.887" y2="139.615"/>
<line x1="677.695" y1="222.196" x2="678.694" y2="228.830"/>
<line x1="677.695" y1="222.196" x2="686.254" y2="224.977"/>
<line x1="678.436" y1="88.574" x2="681.527" y2="82.620"/>
<line x1="678.436" y1="293.746" x2="681.527" y2="299.700"/>
<line x1="678.872" y1="182.938" x2="685.490" y2="184.038"/>
<line x1="678.872" y1="182.938" x2="685.926" y2="173.230"/>
<line x1="678.872" y1="361.185" x2="685.490" y2="360.086"/>
<line x1="678.872" y1="361.185" x2="685.926" y2="370.893"/>
<line x1="681.527" y1="82.620" x2="686.817" y2="89.901"/>
<line x1="681.527" y1="299.700" x2="686.817" y2="292.419"/>
<line x1="681.963" y1="93.428" x2="685.490" y2="98.282"/>
<line x1="681.963" y1="93.428" x2="686.817" y2="89.901"/>
<line x1="681.963" y1="288.892" x2="685.490" y2="284.038"/>
<line x1="681.963" y1="288.892" x2="686.817" y2="292.419"/>
<line x1="684.400" y1="230.684" x2="686.254" y2="224.977"/>
<line x1="684.400" y1="230.684" x2="690.106" y2="232.538"/>
<line x1="685.490" y1="98.282" x2="690.344" y2="94.755"/>
<line x1="685.490" y1="284.038" x2="690.344" y2="287.565"/>
<line x1="685.926" y1="173.230" x2="689.016" y2="179.184"/>
<line x1="685.926" y1="370.893" x2="689.016" y2="364.940"/>
<line x1="686.444" y1="44.663" x2="691.151" y2="49.443"/>
<line x1="686.444" y1="44.663" x2="695.003" y2="41.882"/>
<line x1="687.253" y1="69.807" x2="714.834" y2="78.769"/>
<line x1="687.253" y1="150.709" x2="711.887" y2="142.705"/>
<line x1="687.253" y1="331.611" x2="714.834" y2="340.572"/>
<line x1="689.016" y1="103.136" x2="692.543" y2="107.990"/>
<line x1="689.016" y1="103.136" x2="693.871" y2="99.610"/>
<line x1="689.016" y1="179.184" x2="713.703" y2="145.205"/>
<line x1="689.016" y1="279.184" x2="692.543" y2="274.330"/>
<line x1="689.016" y1="279.184" x2="693.871" y2="282.711"/>
<line x1="689.016" y1="364.940" x2="713.703" y2="398.918"/>
<line x1="690.106" y1="232.538" x2="691.960" y2="226.832"/>
<line x1="690.344" y1="94.755" x2="693.871" y2="99.610"/>
<line x1="690.344" y1="287.565" x2="693.871" y2="282.711"/>
<line x1="691.960" y1="226.832" x2="700.520" y2="229.613"/>
<line x1="692.543" y1="107.990" x2="697.397" y2="104.464"/>
<line x1="692.543" y1="274.330" x2="697.397" y2="277.856"/>
<line x1="695.003" y1="41.882" x2="696.857" y2="47.589"/>
<line x1="695.813" y1="234.392" x2="700.520" y2="229.613"/>
<line x1="695.813" y1="234.392" x2="711.887" y2="239.615"/>
<line x1="696.070" y1="112.844" x2="702.687" y2="111.745"/>
<line x1="696.070" y1="112.844" x2="713.703" y2="137.115"/>
<line x1="696.070" y1="269.476" x2="702.687" y2="270.575"/>
<line x1="696.070" y1="269.476" x2="713.703" y2="245.205"/>
<line x1="696.857" y1="47.589" x2="702.563" y2="45.735"/>
<line x1="697.397" y1="104.464" x2="702.687" y2="111.745"/>
<line x1="697.397" y1="277.856" x2="702.687" y2="270.575"/>
<line x1="700.709" y1="40.028" x2="702.563" y2="45.735"/>
<line x1="700.709" y1="40.028" x2="706.416" y2="38.174"/>
<line x1="701.564" y1="6.345" x2="702.563" y2="12.979"/>
<line x1="701.564" y1="6.345" x2="712.977" y2="10.054"/>
<line x1="701.564" y1="314.171" x2="702.563" y2="307.538"/>
<line x1="701.564" y1="314.171" x2="712.977" y2="310.463"/>
<line x1="706.416" y1="38.174" x2="708.270" y2="43.880"/>
<line x1="708.270" y1="14.833" x2="712.977" y2="10.054"/>
<line x1="708.270" y1="14.833" x2="748.214" y2="27.812"/>
<line x1="708.270" y1="43.880" x2="713.976" y2="42.026"/>
<line x1="708.270" y1="305.684" x2="712.977" y2="310.463"/>
<line x1="708.270" y1="305.684" x2="748.214" y2="292.705"/>
<line x1="710.126" y1="345.352" x2="714.834" y2="340.572"/>
<line x1="710.126" y1="345.352" x2="718.686" y2="348.133"/>
<line x1="710.642" y1="173.160" x2="710.642" y2="182.160"/>
<line x1="710.642" y1="173.160" x2="716.642" y2="176.160"/>
<line x1="710.642" y1="182.160" x2="716.642" y2="182.160"/>
<line x1="710.642" y1="188.160" x2="710.642" y2="194.160"/>
<line x1="710.642" y1="188.160" x2="716.642" y2="188.160"/>
<line x1="710.642" y1="194.160" x2="716.642" y2="194.160"/>
<line x1="710.642" y1="200.160" x2="710.642" y2="209.160"/>
<line x1="710.642" y1="200.160" x2="716.642" y2="200.160"/>
<line x1="710.642" y1="209.160" x2="716.642" y2="206.160"/>
<line x1="712.122" y1="36.320" x2="713.976" y2="42.026"/>
<line x1="712.122" y1="36.320" x2="720.682" y2="33.539"/>
<line x1="713.835" y1="72.136" x2="714.834" y2="78.769"/>
<line x1="713.835" y1="72.136" x2="722.394" y2="74.917"/>
<line x1="716.642" y1="146.160" x2="716.642" y2="176.160"/>
<line x1="716.642" y1="182.160" x2="716.642" y2="188.160"/>
<line x1="716.642" y1="194.160" x2="716.642" y2="200.160"/>
<line x1="716.642" y1="206.160" x2="716.642" y2="236.160"/>
<line x1="718.686" y1="348.133" x2="720.540" y2="342.426"/>
<line x1="719.581" y1="237.115" x2="734.806" y2="216.160"/>
<line x1="719.581" y1="245.205" x2="729.516" y2="258.879"/>
<line x1="719.683" y1="40.172" x2="720.682" y2="33.539"/>
<line x1="719.683" y1="40.172" x2="748.214" y2="30.902"/>
<line x1="720.540" y1="80.623" x2="722.394" y2="74.917"/>
<line x1="720.540" y1="80.623" x2="726.246" y2="82.477"/>
<line x1="720.540" y1="342.426" x2="726.246" y2="344.281"/>
<line x1="721.398" y1="139.615" x2="761.342" y2="126.636"/>
<line x1="721.398" y1="239.615" x2="749.929" y2="230.344"/>
<line x1="721.398" y1="401.418" x2="749.929" y2="392.148"/>
<line x1="722.898" y1="259.979" x2="728.188" y2="267.260"/>
<line x1="722.898" y1="259.979" x2="729.516" y2="258.879"/>
<line x1="724.392" y1="349.987" x2="726.246" y2="344.281"/>
<line x1="724.392" y1="349.987" x2="730.099" y2="351.841"/>
<line x1="726.246" y1="82.477" x2="728.101" y2="76.771"/>
<line x1="728.101" y1="76.771" x2="733.807" y2="78.625"/>
<line x1="728.188" y1="267.260" x2="733.043" y2="263.733"/>
<line x1="730.099" y1="351.841" x2="731.953" y2="346.135"/>
<line x1="731.715" y1="272.114" x2="736.569" y2="268.587"/>
<line x1="731.715" y1="272.114" x2="737.005" y2="279.395"/>
<line x1="731.953" y1="84.331" x2="733.807" y2="78.625"/>
<line x1="731.953" y1="84.331" x2="737.659" y2="86.185"/>
<line x1="731.953" y1="346.135" x2="737.659" y2="347.989"/>
<line x1="733.043" y1="263.733" x2="736.569" y2="268.587"/>
<line x1="734.806" y1="216.160" x2="751.852" y2="192.699"/>
<line x1="735.805" y1="353.695" x2="737.659" y2="347.989"/>
<line x1="735.805" y1="353.695" x2="741.511" y2="355.549"/>
<line x1="737.005" y1="279.395" x2="740.096" y2="273.441"/>
<line x1="737.659" y1="86.185" x2="739.513" y2="80.479"/>
<line x1="739.513" y1="80.479" x2="745.220" y2="82.333"/>
<line x1="740.096" y1="273.441" x2="750.031" y2="287.115"/>
<line x1="741.511" y1="355.549" x2="743.365" y2="349.843"/>
<line x1="743.365" y1="88.039" x2="745.220" y2="82.333"/>
<line x1="743.365" y1="88.039" x2="749.072" y2="89.894"/>
<line x1="743.365" y1="349.843" x2="749.072" y2="351.697"/>
<line x1="745.222" y1="225.565" x2="749.929" y2="230.344"/>
<line x1="745.222" y1="225.565" x2="753.782" y2="222.784"/>
<line x1="745.234" y1="191.599" x2="750.524" y2="184.318"/>
<line x1="745.234" y1="191.599" x2="751.852" y2="192.699"/>
<line x1="747.218" y1="357.403" x2="749.072" y2="351.697"/>
<line x1="747.218" y1="357.403" x2="755.777" y2="360.184"/>
<line x1="748.930" y1="398.781" x2="749.929" y2="392.148"/>
<line x1="748.930" y1="398.781" x2="757.490" y2="396.000"/>
<line x1="749.072" y1="89.894" x2="750.926" y2="84.187"/>
<line x1="750.524" y1="184.318" x2="755.378" y2="187.844"/>
<line x1="750.926" y1="84.187" x2="759.485" y2="86.968"/>
<line x1="753.782" y1="222.784" x2="755.636" y2="228.490"/>
<line x1="754.051" y1="179.464" x2="757.578" y2="174.610"/>
<line x1="754.051" y1="179.464" x2="758.905" y2="182.990"/>
<line x1="754.778" y1="91.748" x2="759.485" y2="86.968"/>
<line x1="754.778" y1="91.748" x2="782.359" y2="100.709"/>
<line x1="754.778" y1="353.551" x2="755.777" y2="360.184"/>
<line x1="754.778" y1="353.551" x2="782.359" y2="362.513"/>
<line x1="755.378" y1="187.844" x2="758.905" y2="182.990"/>
<line x1="755.636" y1="228.490" x2="761.342" y2="226.636"/>
<line x1="755.636" y1="390.294" x2="757.490" y2="396.000"/>
<line x1="755.636" y1="390.294" x2="761.342" y2="388.440"/>
<line x1="755.908" y1="33.402" x2="780.595" y2="67.380"/>
<line x1="755.908" y1="287.115" x2="780.595" y2="253.136"/>
<line x1="755.908" y1="295.205" x2="773.542" y2="319.476"/>
<line x1="756.635" y1="121.857" x2="761.342" y2="126.636"/>
<line x1="756.635" y1="121.857" x2="768.047" y2="118.149"/>
<line x1="757.578" y1="174.610" x2="762.432" y2="178.136"/>
<line x1="759.488" y1="220.930" x2="761.342" y2="226.636"/>
<line x1="759.488" y1="220.930" x2="765.194" y2="219.076"/>
<line x1="761.104" y1="169.755" x2="764.631" y2="164.901"/>
<line x1="761.104" y1="169.755" x2="765.959" y2="173.282"/>
<line x1="761.342" y1="388.440" x2="763.196" y2="394.146"/>
<line x1="762.432" y1="178.136" x2="765.959" y2="173.282"/>
<line x1="763.196" y1="394.146" x2="768.902" y2="392.292"/>
<line x1="764.631" y1="164.901" x2="769.485" y2="168.428"/>
<line x1="765.194" y1="219.076" x2="767.048" y2="224.782"/>
<line x1="766.925" y1="320.575" x2="772.215" y2="327.856"/>
<line x1="766.925" y1="320.575" x2="773.542" y2="319.476"/>
<line x1="767.048" y1="124.782" x2="768.047" y2="118.149"/>
<line x1="767.048" y1="124.782" x2="806.993" y2="111.803"/>
<line x1="767.048" y1="224.782" x2="772.755" y2="222.928"/>
<line x1="767.048" y1="386.586" x2="768.902" y2="392.292"/>
<line x1="767.048" y1="386.586" x2="772.755" y2="384.731"/>
<line x1="768.158" y1="160.047" x2="773.012" y2="163.574"/>
<line x1="768.158" y1="160.047" x2="773.448" y2="152.766"/>
<line x1="769.485" y1="168.428" x2="773.012" y2="163.574"/>
<line x1="770.901" y1="217.222" x2="772.755" y2="222.928"/>
<line x1="770.901" y1="217.222" x2="779.460" y2="214.441"/>
<line x1="772.215" y1="327.856" x2="777.069" y2="324.330"/>
<line x1="772.755" y1="384.731" x2="774.609" y2="390.438"/>
<line x1="773.448" y1="152.766" x2="776.539" y2="158.720"/>
<line x1="773.978" y1="252.037" x2="780.595" y2="253.136"/>
<line x1="773.978" y1="252.037" x2="781.031" y2="242.328"/>
<line x1="774.609" y1="390.438" x2="783.168" y2="387.657"/>
<line x1="775.741" y1="332.711" x2="779.268" y2="337.565"/>
<line x1="775.741" y1="332.711" x2="780.595" y2="329.184"/>
<line x1="776.539" y1="158.720" x2="793.584" y2="135.258"/>
<line x1="777.069" y1="324.330" x2="780.595" y2="329.184"/>
<line x1="778.461" y1="221.074" x2="779.460" y2="214.441"/>
<line x1="778.461" y1="221.074" x2="806.993" y2="211.803"/>
<line x1="778.461" y1="382.877" x2="783.168" y2="387.657"/>
<line x1="778.461" y1="382.877" x2="806.993" y2="373.607"/>
<line x1="779.268" y1="337.565" x2="784.122" y2="334.038"/>
<line x1="780.595" y1="67.380" x2="783.686" y2="61.427"/>
<line x1="781.031" y1="242.328" x2="784.122" y2="248.282"/>
<line x1="782.359" y1="100.709" x2="806.993" y2="108.713"/>
<line x1="782.359" y1="362.513" x2="806.993" y2="370.517"/>
<line x1="782.795" y1="342.419" x2="787.649" y2="338.892"/>
<line x1="782.795" y1="342.419" x2="788.085" y2="349.700"/>
<line x1="783.686" y1="61.427" x2="790.740" y2="71.135"/>
<line x1="784.122" y1="72.235" x2="790.740" y2="71.135"/>
<line x1="784.122" y1="72.235" x2="808.809" y2="106.213"/>
<line x1="784.122" y1="248.282" x2="808.809" y2="214.303"/>
<line x1="784.122" y1="334.038" x2="787.649" y2="338.892"/>
<line x1="788.085" y1="349.700" x2="791.176" y2="343.746"/>
<line x1="791.176" y1="343.746" x2="808.809" y2="368.017"/>
<line x1="793.584" y1="135.258" x2="808.809" y2="114.303"/>
<line x1="805.748" y1="154.258" x2="805.748" y2="166.258"/>
<line x1="805.748" y1="154.258" x2="811.748" y2="157.258"/>
<line x1="805.748" y1="166.258" x2="811.748" y2="163.258"/>
<line x1="811.748" y1="115.258" x2="811.748" y2="157.258"/>
<line x1="811.748" y1="163.258" x2="811.748" y2="205.258"/>
<path d="M 506.919 214.303 A 6.882 6.882 0 0 0 499.224 211.803"/>
<path d="M 413.629 239.615 A 1.625 1.625 0 0 0 413.629 242.705"/>
<path d="M 558.003 289.615 A 1.625 1.625 0 0 0 559.819 287.115"/>
<path d="M 413.629 242.705 A 1.625 1.625 0 0 0 411.813 245.205"/>
<path d="M 464.714 318.017 A 6.882 6.882 0 0 0 472.408 320.517"/>
<path d="M 558.003 292.705 A 1.625 1.625 0 0 0 558.003 289.615"/>
<path d="M 567.513 292.705 A 6.882 6.882 0 0 0 559.819 295.205"/>
<path d="M 506.919 368.017 A 1.625 1.625 0 0 0 508.735 370.517"/>
<path d="M 653.109 323.607 A 1.625 1.625 0 0 0 653.109 320.517"/>
<path d="M 508.735 370.517 A 1.625 1.625 0 0 0 508.735 373.607"/>
<path d="M 594.330 401.418 A 6.882 6.882 0 0 0 602.024 398.918"/>
<path d="M 654.925 326.107 A 1.625 1.625 0 0 0 653.109 323.607"/>
<path d="M 657.864 227.062 A 6.882 6.882 0 0 0 653.109 220.517"/>
<path d="M 567.513 192.705 A 1.625 1.625 0 0 0 565.697 195.205"/>
<path d="M 654.925 318.017 A 1.625 1.625 0 0 0 657.864 317.062"/>
<path d="M 565.697 195.205 A 1.625 1.625 0 0 0 562.758 196.160"/>
<path d="M 562.758 286.160 A 6.882 6.882 0 0 0 567.513 292.705"/>
<path d="M 653.109 320.517 A 1.625 1.625 0 0 0 654.925 318.017"/>
<path d="M 470.591 326.107 A 3.633 3.633 0 0 0 464.714 326.107"/>
<path d="M 411.813 398.918 A 1.625 1.625 0 0 0 413.629 401.418"/>
<path d="M 499.224 373.607 A 3.633 3.633 0 0 0 501.041 368.017"/>
<path d="M 559.819 295.205 A 1.625 1.625 0 0 0 558.003 292.705"/>
<path d="M 472.408 320.517 A 3.633 3.633 0 0 0 470.591 326.107"/>
<path d="M 501.041 368.017 A 3.633 3.633 0 0 0 506.919 368.017"/>
<path d="M 713.703 398.918 A 6.882 6.882 0 0 0 721.398 401.418"/>
<path d="M 806.993 373.607 A 1.625 1.625 0 0 0 806.993 370.517"/>
<path d="M 662.619 323.607 A 1.625 1.625 0 0 0 660.803 326.107"/>
<path d="M 806.993 370.517 A 1.625 1.625 0 0 0 808.809 368.017"/>
<path d="M 755.908 295.205 A 6.882 6.882 0 0 0 748.214 292.705"/>
<path d="M 662.619 320.517 A 1.625 1.625 0 0 0 662.619 323.607"/>
<path d="M 464.714 326.107 A 6.882 6.882 0 0 0 464.714 318.017"/>
<path d="M 411.813 245.205 A 1.625 1.625 0 0 0 408.874 246.160"/>
<path d="M 408.874 397.963 A 1.625 1.625 0 0 0 411.813 398.918"/>
<path d="M 408.874 246.160 A 1.625 1.625 0 0 0 405.935 245.205"/>
<path d="M 353.034 318.017 A 6.882 6.882 0 0 0 353.034 326.107"/>
<path d="M 405.935 398.918 A 1.625 1.625 0 0 0 408.874 397.963"/>
<path d="M 347.157 326.107 A 3.633 3.633 0 0 0 345.340 320.517"/>
<path d="M 259.745 292.705 A 1.625 1.625 0 0 0 257.929 295.205"/>
<path d="M 310.829 368.017 A 3.633 3.633 0 0 0 316.707 368.017"/>
<path d="M 404.119 401.418 A 1.625 1.625 0 0 0 405.935 398.918"/>
<path d="M 353.034 326.107 A 3.633 3.633 0 0 0 347.157 326.107"/>
<path d="M 316.707 368.017 A 3.633 3.633 0 0 0 318.524 373.607"/>
<path d="M 156.945 218.017 A 6.882 6.882 0 0 0 164.639 220.517"/>
<path d="M 250.235 192.705 A 1.625 1.625 0 0 0 250.235 189.615"/>
<path d="M 105.861 142.705 A 1.625 1.625 0 0 0 104.045 145.205"/>
<path d="M 250.235 189.615 A 1.625 1.625 0 0 0 252.051 187.115"/>
<path d="M 199.150 114.303 A 6.882 6.882 0 0 0 191.456 111.803"/>
<path d="M 105.861 139.615 A 1.625 1.625 0 0 0 105.861 142.705"/>
<path d="M 96.350 139.615 A 6.882 6.882 0 0 0 104.045 137.115"/>
<path d="M 156.945 64.303 A 1.625 1.625 0 0 0 155.129 61.803"/>
<path d="M 10.755 108.713 A 1.625 1.625 0 0 0 10.755 111.803"/>
<path d="M 155.129 61.803 A 1.625 1.625 0 0 0 155.129 58.713"/>
<path d="M 69.534 30.902 A 6.882 6.882 0 0 0 61.840 33.402"/>
<path d="M 8.939 106.213 A 1.625 1.625 0 0 0 10.755 108.713"/>
<path d="M 193.272 106.213 A 3.633 3.633 0 0 0 199.150 106.213"/>
<path d="M 252.051 33.402 A 1.625 1.625 0 0 0 250.235 30.902"/>
<path d="M 164.639 58.713 A 3.633 3.633 0 0 0 162.823 64.303"/>
<path d="M 104.045 137.115 A 1.625 1.625 0 0 0 105.861 139.615"/>
<path d="M 191.456 111.803 A 3.633 3.633 0 0 0 193.272 106.213"/>
<path d="M 162.823 64.303 A 3.633 3.633 0 0 0 156.945 64.303"/>
<path d="M 155.129 223.607 A 3.633 3.633 0 0 0 156.945 218.017"/>
<path d="M 104.045 145.205 A 1.625 1.625 0 0 0 101.106 146.160"/>
<path d="M 101.106 236.160 A 3.633 3.633 0 0 0 105.861 239.615"/>
<path d="M 156.945 318.017 A 1.625 1.625 0 0 0 159.884 317.062"/>
<path d="M 159.884 227.062 A 3.633 3.633 0 0 0 155.129 223.607"/>
<path d="M 105.861 239.615 A 3.633 3.633 0 0 0 104.045 245.205"/>
<path d="M 345.340 320.517 A 6.882 6.882 0 0 0 353.034 318.017"/>
<path d="M 405.935 245.205 A 1.625 1.625 0 0 0 404.119 242.705"/>
<path d="M 259.745 289.615 A 1.625 1.625 0 0 0 259.745 292.705"/>
<path d="M 404.119 242.705 A 1.625 1.625 0 0 0 404.119 239.615"/>
<path d="M 318.524 211.803 A 6.882 6.882 0 0 0 310.829 214.303"/>
<path d="M 257.929 287.115 A 1.625 1.625 0 0 0 259.745 289.615"/>
<path d="M 250.235 292.705 A 6.882 6.882 0 0 0 254.990 286.160"/>
<path d="M 254.990 196.160 A 1.625 1.625 0 0 0 252.051 195.205"/>
<path d="M 162.823 318.017 A 1.625 1.625 0 0 0 164.639 320.517"/>
<path d="M 252.051 195.205 A 1.625 1.625 0 0 0 250.235 192.705"/>
<path d="M 164.639 220.517 A 6.882 6.882 0 0 0 159.884 227.062"/>
<path d="M 159.884 317.062 A 1.625 1.625 0 0 0 162.823 318.017"/>
<path d="M 215.724 398.918 A 6.882 6.882 0 0 0 223.418 401.418"/>
<path d="M 309.013 373.607 A 1.625 1.625 0 0 0 309.013 370.517"/>
<path d="M 164.639 323.607 A 1.625 1.625 0 0 0 162.823 326.107"/>
<path d="M 309.013 370.517 A 1.625 1.625 0 0 0 310.829 368.017"/>
<path d="M 257.929 295.205 A 6.882 6.882 0 0 0 250.235 292.705"/>
<path d="M 164.639 320.517 A 1.625 1.625 0 0 0 164.639 323.607"/>
<path d="M 309.013 208.713 A 3.633 3.633 0 0 0 313.768 205.258"/>
<path d="M 313.768 115.258 A 1.625 1.625 0 0 0 310.829 114.303"/>
<path d="M 257.929 187.115 A 3.633 3.633 0 0 0 259.745 192.705"/>
<path d="M 254.990 286.160 A 1.625 1.625 0 0 0 257.929 287.115"/>
<path d="M 310.829 214.303 A 3.633 3.633 0 0 0 309.013 208.713"/>
<path d="M 259.745 192.705 A 3.633 3.633 0 0 0 254.990 196.160"/>
<path d="M 69.534 292.705 A 6.882 6.882 0 0 0 61.840 295.205"/>
<path d="M 8.939 368.017 A 1.625 1.625 0 0 0 10.755 370.517"/>
<path d="M 155.129 323.607 A 1.625 1.625 0 0 0 155.129 320.517"/>
<path d="M 10.755 370.517 A 1.625 1.625 0 0 0 10.755 373.607"/>
<path d="M 96.350 401.418 A 6.882 6.882 0 0 0 104.045 398.918"/>
<path d="M 156.945 326.107 A 1.625 1.625 0 0 0 155.129 323.607"/>
<path d="M 159.884 3.455 A 3.633 3.633 0 0 0 155.129 0.000"/>
<path d="M 69.534 27.812 A 1.625 1.625 0 0 0 69.534 30.902"/>
<path d="M 155.129 58.713 A 3.633 3.633 0 0 0 159.884 55.258"/>
<path d="M 250.235 30.902 A 1.625 1.625 0 0 0 250.235 27.812"/>
<path d="M 164.639 0.000 A 3.633 3.633 0 0 0 159.884 3.455"/>
<path d="M 159.884 55.258 A 3.633 3.633 0 0 0 164.639 58.713"/>
<path d="M 6.000 205.258 A 6.882 6.882 0 0 0 10.755 211.803"/>
<path d="M 96.350 239.615 A 1.625 1.625 0 0 0 98.167 237.115"/>
<path d="M 8.939 114.303 A 1.625 1.625 0 0 0 6.000 115.258"/>
<path d="M 98.167 237.115 A 1.625 1.625 0 0 0 101.106 236.160"/>
<path d="M 101.106 146.160 A 6.882 6.882 0 0 0 96.350 139.615"/>
<path d="M 10.755 111.803 A 1.625 1.625 0 0 0 8.939 114.303"/>
<path d="M 67.717 287.115 A 3.633 3.633 0 0 0 69.534 292.705"/>
<path d="M 155.129 320.517 A 1.625 1.625 0 0 0 156.945 318.017"/>
<path d="M 104.045 245.205 A 3.633 3.633 0 0 0 98.167 245.205"/>
<path d="M 10.755 211.803 A 1.625 1.625 0 0 0 8.939 214.303"/>
<path d="M 61.840 287.115 A 3.633 3.633 0 0 0 67.717 287.115"/>
<path d="M 98.167 245.205 A 3.633 3.633 0 0 0 96.350 239.615"/>
<path d="M 313.768 205.258 A 6.882 6.882 0 0 0 318.524 211.803"/>
<path d="M 404.119 239.615 A 1.625 1.625 0 0 0 405.935 237.115"/>
<path d="M 316.707 114.303 A 1.625 1.625 0 0 0 313.768 115.258"/>
<path d="M 405.935 237.115 A 1.625 1.625 0 0 0 408.874 236.160"/>
<path d="M 408.874 146.160 A 6.882 6.882 0 0 0 404.119 139.615"/>
<path d="M 318.524 111.803 A 1.625 1.625 0 0 0 316.707 114.303"/>
<path d="M 310.829 106.213 A 6.882 6.882 0 0 0 318.524 108.713"/>
<path d="M 404.119 80.902 A 1.625 1.625 0 0 0 404.119 77.812"/>
<path d="M 259.745 30.902 A 1.625 1.625 0 0 0 257.929 33.402"/>
<path d="M 404.119 77.812 A 1.625 1.625 0 0 0 405.935 75.312"/>
<path d="M 353.034 2.500 A 6.882 6.882 0 0 0 345.340 0.000"/>
<path d="M 259.745 27.812 A 1.625 1.625 0 0 0 259.745 30.902"/>
<path d="M 199.150 106.213 A 6.882 6.882 0 0 0 199.150 114.303"/>
<path d="M 252.051 187.115 A 1.625 1.625 0 0 0 254.990 186.160"/>
<path d="M 254.990 34.357 A 1.625 1.625 0 0 0 252.051 33.402"/>
<path d="M 254.990 186.160 A 1.625 1.625 0 0 0 257.929 187.115"/>
<path d="M 310.829 114.303 A 6.882 6.882 0 0 0 310.829 106.213"/>
<path d="M 257.929 33.402 A 1.625 1.625 0 0 0 254.990 34.357"/>
<path d="M 408.874 136.160 A 3.633 3.633 0 0 0 413.629 139.615"/>
<path d="M 499.224 111.803 A 1.625 1.625 0 0 0 499.224 108.713"/>
<path d="M 413.629 80.902 A 3.633 3.633 0 0 0 408.874 84.357"/>
<path d="M 318.524 108.713 A 1.625 1.625 0 0 0 318.524 111.803"/>
<path d="M 404.119 139.615 A 3.633 3.633 0 0 0 408.874 136.160"/>
<path d="M 408.874 84.357 A 3.633 3.633 0 0 0 404.119 80.902"/>
<path d="M 626.292 111.803 A 6.882 6.882 0 0 0 618.598 114.303"/>
<path d="M 565.697 187.115 A 1.625 1.625 0 0 0 567.513 189.615"/>
<path d="M 711.887 142.705 A 1.625 1.625 0 0 0 711.887 139.615"/>
<path d="M 567.513 189.615 A 1.625 1.625 0 0 0 567.513 192.705"/>
<path d="M 653.109 220.517 A 6.882 6.882 0 0 0 660.803 218.017"/>
<path d="M 713.703 145.205 A 1.625 1.625 0 0 0 711.887 142.705"/>
<path d="M 721.398 139.615 A 6.882 6.882 0 0 0 716.642 146.160"/>
<path d="M 716.642 236.160 A 1.625 1.625 0 0 0 719.581 237.115"/>
<path d="M 808.809 114.303 A 1.625 1.625 0 0 0 806.993 111.803"/>
<path d="M 719.581 237.115 A 1.625 1.625 0 0 0 721.398 239.615"/>
<path d="M 806.993 211.803 A 6.882 6.882 0 0 0 811.748 205.258"/>
<path d="M 811.748 115.258 A 1.625 1.625 0 0 0 808.809 114.303"/>
<path d="M 662.619 223.607 A 3.633 3.633 0 0 0 657.864 227.062"/>
<path d="M 657.864 317.062 A 1.625 1.625 0 0 0 660.803 318.017"/>
<path d="M 713.703 245.205 A 3.633 3.633 0 0 0 711.887 239.615"/>
<path d="M 716.642 146.160 A 1.625 1.625 0 0 0 713.703 145.205"/>
<path d="M 660.803 218.017 A 3.633 3.633 0 0 0 662.619 223.607"/>
<path d="M 711.887 239.615 A 3.633 3.633 0 0 0 716.642 236.160"/>
<path d="M 624.476 106.213 A 3.633 3.633 0 0 0 626.292 111.803"/>
<path d="M 711.887 139.615 A 1.625 1.625 0 0 0 713.703 137.115"/>
<path d="M 660.803 64.303 A 3.633 3.633 0 0 0 654.925 64.303"/>
<path d="M 567.513 30.902 A 1.625 1.625 0 0 0 565.697 33.402"/>
<path d="M 618.598 106.213 A 3.633 3.633 0 0 0 624.476 106.213"/>
<path d="M 654.925 64.303 A 3.633 3.633 0 0 0 653.109 58.713"/>
<path d="M 413.629 139.615 A 6.882 6.882 0 0 0 408.874 146.160"/>
<path d="M 408.874 236.160 A 1.625 1.625 0 0 0 411.813 237.115"/>
<path d="M 501.041 114.303 A 1.625 1.625 0 0 0 499.224 111.803"/>
<path d="M 411.813 237.115 A 1.625 1.625 0 0 0 413.629 239.615"/>
<path d="M 499.224 211.803 A 6.882 6.882 0 0 0 503.980 205.258"/>
<path d="M 503.980 115.258 A 1.625 1.625 0 0 0 501.041 114.303"/>
<path d="M 506.919 106.213 A 6.882 6.882 0 0 0 506.919 114.303"/>
<path d="M 559.819 187.115 A 1.625 1.625 0 0 0 562.758 186.160"/>
<path d="M 562.758 34.357 A 1.625 1.625 0 0 0 559.819 33.402"/>
<path d="M 562.758 186.160 A 1.625 1.625 0 0 0 565.697 187.115"/>
<path d="M 618.598 114.303 A 6.882 6.882 0 0 0 618.598 106.213"/>
<path d="M 565.697 33.402 A 1.625 1.625 0 0 0 562.758 34.357"/>
<path d="M 472.408 0.000 A 6.882 6.882 0 0 0 464.714 2.500"/>
<path d="M 411.813 75.312 A 1.625 1.625 0 0 0 413.629 77.812"/>
<path d="M 558.003 30.902 A 1.625 1.625 0 0 0 558.003 27.812"/>
<path d="M 413.629 77.812 A 1.625 1.625 0 0 0 413.629 80.902"/>
<path d="M 499.224 108.713 A 6.882 6.882 0 0 0 506.919 106.213"/>
<path d="M 559.819 33.402 A 1.625 1.625 0 0 0 558.003 30.902"/>
<path d="M 508.735 208.713 A 3.633 3.633 0 0 0 506.919 214.303"/>
<path d="M 559.819 287.115 A 1.625 1.625 0 0 0 562.758 286.160"/>
<path d="M 562.758 196.160 A 3.633 3.633 0 0 0 558.003 192.705"/>
<path d="M 506.919 114.303 A 1.625 1.625 0 0 0 503.980 115.258"/>
<path d="M 503.980 205.258 A 3.633 3.633 0 0 0 508.735 208.713"/>
<path d="M 558.003 192.705 A 3.633 3.633 0 0 0 559.819 187.115"/>
<path d="M 750.031 287.115 A 3.633 3.633 0 0 0 755.908 287.115"/>
<path d="M 808.809 214.303 A 1.625 1.625 0 0 0 806.993 211.803"/>
<path d="M 721.398 239.615 A 3.633 3.633 0 0 0 719.581 245.205"/>
<path d="M 660.803 318.017 A 1.625 1.625 0 0 0 662.619 320.517"/>
<path d="M 748.214 292.705 A 3.633 3.633 0 0 0 750.031 287.115"/>
<path d="M 719.581 245.205 A 3.633 3.633 0 0 0 713.703 245.205"/>
<path d="M 755.908 33.402 A 6.882 6.882 0 0 0 748.214 30.902"/>
<path d="M 662.619 58.713 A 1.625 1.625 0 0 0 662.619 61.803"/>
<path d="M 806.993 108.713 A 1.625 1.625 0 0 0 808.809 106.213"/>
<path d="M 662.619 61.803 A 1.625 1.625 0 0 0 660.803 64.303"/>
<path d="M 713.703 137.115 A 6.882 6.882 0 0 0 721.398 139.615"/>
<path d="M 806.993 111.803 A 1.625 1.625 0 0 0 806.993 108.713"/>
<path d="M 657.864 3.455 A 3.633 3.633 0 0 0 653.109 0.000"/>
<path d="M 567.513 27.812 A 1.625 1.625 0 0 0 567.513 30.902"/>
<path d="M 653.109 58.713 A 3.633 3.633 0 0 0 657.864 55.258"/>
<path d="M 748.214 30.902 A 1.625 1.625 0 0 0 748.214 27.812"/>
<path d="M 662.619 0.000 A 3.633 3.633 0 0 0 657.864 3.455"/>
<path d="M 657.864 55.258 A 3.633 3.633 0 0 0 662.619 58.713"/>
</g>
<g stroke="blue" stroke-width=".1">
</g>
<g fill="none" stroke="red" stroke-width=".1">
</g>
</svg>
